<?xml version="1.0" standalone="no"?>
<!DOCTYPE svg PUBLIC "-//W3C//DTD SVG 20010904//EN"
 "http://www.w3.org/TR/2001/REC-SVG-20010904/DTD/svg10.dtd">
<svg version="1.0" xmlns="http://www.w3.org/2000/svg"
 width="3353.000000pt" height="1916.000000pt" viewBox="0 0 3353.000000 1916.000000"
 preserveAspectRatio="xMidYMid meet">

<g transform="translate(0.000000,1916.000000) scale(0.100000,-0.100000)" stroke="none">
<path d="M10265 19130 c-221 -34 -452 -98 -652 -181 -500 -209 -843 -522
-1092 -1000 -155 -299 -271 -689 -275 -927 -2 -140 -8 -136 194 -129 414 14
905 161 1268 379 313 188 559 459 741 818 146 287 253 642 268 890 7 123 2
145 -38 159 -48 17 -279 12 -414 -9z"/>
<path d="M6581 18350 c-24 -10 -24 -11 -18 -133 9 -188 64 -405 152 -593 101
-217 233 -371 430 -501 191 -127 507 -233 691 -233 60 0 64 1 70 26 13 51 -4
256 -30 359 -114 459 -339 751 -721 935 -205 98 -500 170 -574 140z"/>
<path d="M5705 17080 c-549 -62 -1029 -348 -1395 -832 -333 -440 -511 -947
-592 -1683 -17 -161 -18 -800 0 -950 63 -537 217 -1089 438 -1563 l48 -103
1695 1695 c1784 1783 1714 1716 1796 1716 80 0 59 19 980 -901 484 -483 883
-879 888 -879 4 0 7 108 7 239 0 132 4 251 9 264 13 35 68 95 105 115 27 15
63 17 261 17 251 0 258 -1 319 -62 57 -56 56 -39 56 -715 l0 -623 580 -580
c318 -318 581 -577 583 -575 11 12 91 179 146 307 203 469 328 953 383 1483
17 163 17 735 0 890 -74 674 -291 1170 -692 1584 -359 370 -769 586 -1236 651
-90 13 -164 16 -304 12 -213 -6 -242 -12 -540 -110 -205 -68 -751 -210 -955
-249 -95 -18 -156 -22 -295 -23 l-175 0 -92 47 c-108 55 -208 121 -353 232
-420 322 -508 380 -676 446 -135 53 -329 106 -479 131 -138 22 -393 32 -510
19z m4485 -1708 c19 -9 45 -32 57 -51 22 -33 23 -41 23 -283 0 -268 -2 -278
-55 -328 l-27 -25 -273 0 -273 0 -27 25 c-53 50 -55 60 -55 328 0 242 1 250
23 283 43 65 63 69 332 69 209 0 245 -2 275 -18z"/>
<path d="M7660 14324 c-8 -4 -691 -682 -1517 -1507 -1010 -1009 -1504 -1510
-1508 -1527 -9 -43 9 -74 132 -229 138 -172 498 -538 653 -662 370 -296 701
-443 1089 -481 213 -20 454 16 715 108 405 142 483 159 741 159 228 0 255 -5
560 -98 370 -113 381 -116 478 -134 126 -23 388 -23 514 0 279 52 520 156 814
353 219 146 483 383 647 582 44 54 52 69 52 105 l0 42 -1643 1643 c-1460 1460
-1646 1643 -1677 1647 -19 2 -42 2 -50 -1z m-163 -1504 c63 -38 68 -61 68
-292 0 -227 -1 -232 -69 -282 -26 -20 -41 -21 -241 -21 -200 0 -215 1 -241 21
-67 49 -69 57 -72 269 -3 176 -2 198 17 239 35 81 53 86 296 86 191 0 213 -2
242 -20z m813 -2 c66 -45 71 -69 68 -295 -3 -221 -5 -227 -72 -277 -25 -19
-43 -21 -229 -24 -227 -3 -251 3 -294 67 -22 33 -23 42 -23 245 0 232 3 245
66 287 26 17 50 19 240 19 202 0 212 -1 244 -22z m-814 -794 c68 -50 69 -55
69 -282 0 -314 2 -312 -310 -312 -193 0 -213 2 -243 20 -60 37 -72 81 -72 280
0 187 7 229 42 268 45 48 68 52 285 49 186 -2 204 -4 229 -23z m810 0 c67 -50
69 -56 72 -277 3 -226 -2 -250 -68 -294 -32 -22 -42 -23 -244 -23 -232 0 -245
3 -287 66 -17 26 -19 50 -19 240 0 203 1 212 23 245 43 64 67 70 294 67 186
-3 204 -5 229 -24z"/>
<path d="M1740 8149 c-156 -22 -379 -130 -497 -242 -72 -67 -85 -96 -118 -252
-15 -71 -43 -182 -62 -245 -37 -123 -683 -1825 -739 -1948 -48 -105 -111 -196
-214 -306 -101 -110 -118 -147 -99 -218 12 -49 31 -73 74 -97 25 -13 53 -15
175 -11 185 6 309 6 540 0 174 -5 188 -4 232 17 56 26 88 71 88 126 0 54 -10
69 -120 182 -114 119 -135 159 -128 259 3 53 13 82 48 153 70 135 40 128 532
128 478 0 442 9 495 -121 24 -57 33 -95 33 -137 0 -91 -27 -135 -161 -267 -73
-72 -120 -126 -125 -143 -15 -65 15 -135 73 -169 58 -35 124 -39 422 -27 215
9 356 9 566 0 304 -12 406 -6 474 28 52 27 79 63 87 116 10 70 -9 106 -120
224 -60 65 -121 143 -152 193 -38 65 -164 378 -533 1329 -266 684 -493 1262
-504 1284 -60 122 -135 162 -267 144z m-253 -1234 c64 -116 201 -488 233 -637
21 -92 33 -88 -285 -88 -151 0 -280 3 -289 6 -11 4 -16 18 -16 43 0 68 149
479 237 654 54 109 70 112 120 22z"/>
<path d="M21568 8150 c-383 -40 -708 -190 -959 -441 -175 -175 -294 -372 -378
-625 -72 -215 -101 -403 -101 -656 0 -513 160 -931 475 -1237 189 -184 401
-301 673 -372 347 -90 750 -79 1087 28 382 122 689 382 855 726 202 419 226
1020 60 1502 -93 269 -214 461 -411 650 -282 270 -649 417 -1074 430 -77 2
-179 0 -227 -5z m177 -511 c63 -24 168 -102 221 -165 181 -216 325 -584 394
-1004 64 -397 43 -737 -58 -924 -43 -79 -125 -161 -197 -197 -83 -41 -200 -50
-291 -24 -167 48 -313 193 -416 411 -189 403 -262 1108 -157 1523 25 100 97
245 148 298 102 105 220 132 356 82z"/>
<path d="M31797 8149 c-172 -19 -361 -81 -493 -161 -230 -139 -376 -353 -434
-639 -19 -89 -21 -128 -17 -269 4 -141 8 -178 31 -253 110 -366 357 -563 991
-792 496 -179 628 -274 628 -455 0 -142 -94 -240 -259 -271 -129 -24 -359 13
-526 85 -198 86 -357 208 -534 412 -66 76 -139 152 -162 167 -80 56 -162 43
-198 -30 -31 -65 -29 -164 10 -413 19 -124 42 -286 51 -360 19 -157 39 -242
66 -286 39 -64 119 -78 265 -48 103 22 231 15 474 -25 102 -17 226 -35 275
-41 117 -13 357 -13 465 0 198 25 404 91 554 179 93 54 229 179 292 267 197
277 240 707 99 1011 -134 289 -413 493 -940 688 -454 167 -580 224 -670 307
-67 61 -90 115 -82 194 23 219 301 315 617 212 217 -70 415 -228 615 -487 57
-75 120 -147 140 -160 47 -32 119 -38 165 -14 42 22 80 90 80 144 0 20 -20
122 -44 225 -25 104 -61 276 -81 381 -50 274 -77 337 -159 374 -57 26 -131 24
-245 -7 -114 -31 -174 -30 -351 11 -243 56 -444 74 -623 54z"/>
<path d="M4840 8089 c-140 -6 -477 -7 -748 -4 -474 5 -495 5 -537 -14 -59 -26
-85 -69 -85 -141 0 -72 23 -119 99 -205 35 -40 79 -105 101 -150 71 -144 71
-154 77 -857 5 -654 -6 -1123 -31 -1266 -21 -117 -55 -179 -158 -287 -102
-107 -126 -158 -108 -226 9 -33 67 -98 88 -99 4 -1 27 -5 52 -10 28 -6 153 -5
323 1 191 7 389 7 633 -1 379 -11 452 -7 531 31 55 27 85 69 91 129 9 98 -31
140 -231 242 -142 72 -204 128 -250 225 l-32 68 -3 240 c-4 336 -9 330 236
294 826 -118 1350 226 1411 930 44 493 -205 884 -657 1034 -206 69 -367 82
-802 66z m115 -504 c127 -33 234 -121 298 -243 49 -92 67 -175 67 -302 0 -241
-74 -401 -218 -472 -60 -30 -75 -33 -152 -33 -133 1 -199 31 -247 112 -47 81
-55 136 -60 430 -7 379 9 477 80 508 43 19 159 19 232 0z"/>
<path d="M7870 8089 c-140 -6 -477 -7 -748 -4 -474 5 -495 5 -537 -14 -59 -26
-85 -69 -85 -141 0 -72 23 -119 99 -205 35 -40 79 -105 101 -150 71 -144 71
-154 77 -857 5 -654 -6 -1123 -31 -1266 -21 -117 -55 -179 -158 -287 -102
-107 -126 -158 -108 -226 9 -33 67 -98 88 -99 4 -1 27 -5 52 -10 28 -6 153 -5
323 1 191 7 389 7 633 -1 379 -11 452 -7 531 31 55 27 85 69 91 129 9 98 -31
140 -231 242 -142 72 -204 128 -250 225 l-32 68 -3 240 c-4 336 -9 330 236
294 826 -118 1350 226 1411 930 44 493 -205 884 -657 1034 -206 69 -367 82
-802 66z m115 -504 c127 -33 234 -121 298 -243 49 -92 67 -175 67 -302 0 -241
-74 -401 -218 -472 -60 -30 -75 -33 -152 -33 -133 1 -199 31 -247 112 -47 81
-55 136 -60 430 -7 379 9 477 80 508 43 19 159 19 232 0z"/>
<path d="M9618 8068 c-51 -23 -78 -69 -78 -136 0 -72 15 -103 100 -202 40 -47
88 -117 106 -155 67 -138 67 -139 71 -870 5 -682 -6 -1115 -31 -1257 -19 -104
-64 -184 -162 -288 -96 -101 -106 -118 -107 -182 -1 -77 49 -131 138 -147 31
-6 250 -6 580 1 375 7 692 7 1085 -1 632 -12 662 -10 712 49 30 37 44 91 53
220 4 47 17 210 31 362 28 328 30 436 8 501 -21 62 -63 97 -116 97 -85 0 -139
-60 -220 -244 -100 -226 -199 -344 -350 -416 -120 -58 -209 -73 -392 -68 -140
4 -155 6 -203 31 -56 29 -84 62 -111 129 -15 39 -17 112 -20 803 -3 766 4
1030 32 1131 31 116 83 188 230 318 87 77 106 111 106 188 0 64 -25 109 -72
135 -30 16 -84 17 -693 18 -598 0 -663 -2 -697 -17z"/>
<path d="M12448 8068 c-52 -23 -78 -69 -78 -138 0 -72 23 -119 99 -205 35 -40
79 -105 101 -150 71 -144 71 -154 77 -857 5 -654 -6 -1123 -31 -1266 -21 -117
-55 -179 -158 -287 -69 -73 -93 -105 -104 -141 -17 -59 -6 -109 33 -146 57
-54 50 -53 568 -48 264 3 606 5 760 5 154 0 462 -2 685 -5 539 -7 509 -21 541
261 10 96 33 271 50 389 40 271 43 387 11 452 -16 32 -34 51 -58 63 -86 40
-165 -21 -265 -204 -141 -259 -265 -372 -476 -433 -69 -20 -100 -23 -278 -23
-176 0 -204 2 -235 19 -134 71 -166 198 -158 626 4 197 7 231 25 270 28 64 45
75 118 74 155 -1 218 -49 319 -244 82 -155 108 -180 194 -180 45 0 58 4 82 28
48 49 52 94 48 609 -5 514 -8 541 -65 595 -77 71 -159 36 -248 -106 -86 -136
-161 -189 -293 -207 -129 -17 -157 6 -172 142 -13 108 -13 330 0 437 12 111
39 159 105 192 48 24 56 25 240 24 158 -1 203 -5 267 -22 194 -53 273 -131
448 -440 70 -124 118 -175 177 -191 66 -18 139 13 169 71 19 36 21 129 5 201
-6 27 -38 193 -71 370 -69 371 -84 415 -159 456 l-45 25 -1095 0 c-1008 1
-1098 0 -1133 -16z"/>
<path d="M16609 8068 c-52 -23 -79 -69 -79 -136 0 -72 15 -103 100 -202 81
-95 132 -191 157 -295 34 -144 27 -1798 -8 -1991 -18 -99 -61 -175 -158 -277
-104 -109 -113 -124 -113 -190 0 -62 22 -94 88 -127 l49 -25 230 5 c289 6 480
6 765 0 250 -5 284 1 335 61 62 75 40 152 -80 279 -46 48 -95 110 -109 139
-49 96 -69 230 -87 573 -15 305 2 395 79 427 20 8 143 11 439 9 395 -3 412 -4
433 -23 52 -47 55 -63 54 -305 -1 -250 -17 -485 -39 -572 -23 -92 -61 -154
-149 -247 -95 -98 -116 -133 -116 -191 0 -53 21 -93 63 -119 63 -39 111 -42
408 -31 204 9 354 9 557 0 325 -13 363 -8 424 49 30 27 41 46 45 77 9 67 -12
108 -107 209 -139 147 -161 211 -181 520 -17 254 -17 1506 0 1645 21 181 67
286 181 415 70 78 94 133 88 197 -5 52 -27 89 -72 122 -26 20 -39 21 -654 21
-608 0 -628 -1 -661 -20 -68 -40 -90 -137 -51 -223 11 -24 54 -85 96 -135 43
-50 90 -119 105 -152 42 -91 63 -232 63 -430 1 -157 -1 -173 -22 -216 -37 -76
-24 -74 -483 -74 -398 0 -408 1 -436 21 -15 11 -34 34 -42 49 -24 50 -33 189
-21 333 21 256 54 343 185 492 91 102 115 161 95 238 -12 51 -41 88 -80 105
-16 6 -239 10 -639 11 -560 1 -617 0 -652 -16z"/>
<path d="M23755 8078 c-65 -23 -95 -71 -95 -150 1 -69 24 -117 99 -203 145
-166 170 -262 178 -690 8 -398 -17 -894 -68 -1345 -32 -296 -61 -370 -199
-514 -95 -100 -115 -141 -107 -213 6 -53 30 -90 78 -118 27 -15 51 -19 124
-19 202 1 666 1 745 0 130 -1 195 40 207 132 10 76 -12 124 -101 220 -44 49
-93 113 -107 143 -69 141 -98 493 -80 961 11 280 18 328 46 328 29 0 23 13
427 -970 132 -322 255 -619 274 -660 41 -88 73 -126 132 -152 38 -17 49 -18
100 -8 74 15 130 48 182 107 75 85 107 160 373 873 226 603 304 789 347 815
20 13 38 -61 49 -210 30 -386 39 -826 21 -945 -17 -105 -67 -195 -166 -295
-47 -48 -92 -102 -100 -121 -29 -69 -8 -150 48 -184 62 -37 117 -41 408 -30
196 8 353 8 557 0 250 -10 291 -9 338 4 65 19 101 59 110 119 12 80 -8 121
-110 226 -142 148 -169 219 -204 536 -51 460 -76 942 -68 1325 9 409 34 506
177 680 83 101 100 136 100 208 0 68 -26 117 -75 142 -57 29 -713 9 -846 -25
-86 -23 -126 -45 -180 -102 -113 -118 -176 -254 -540 -1157 -82 -204 -156
-381 -165 -394 -10 -15 -23 -22 -37 -20 -18 2 -42 50 -145 293 -300 707 -444
1020 -518 1130 -142 211 -222 258 -459 275 -219 15 -716 20 -750 8z"/>
<path d="M27908 8068 c-52 -23 -78 -69 -78 -138 0 -72 23 -119 99 -205 35 -40
79 -105 101 -150 71 -144 71 -154 77 -857 5 -654 -6 -1123 -31 -1266 -21 -117
-55 -179 -158 -287 -69 -73 -93 -105 -104 -141 -17 -59 -6 -109 33 -146 57
-54 50 -53 568 -48 264 3 606 5 760 5 154 0 462 -2 685 -5 539 -7 509 -21 541
261 10 96 33 271 50 389 40 271 43 387 11 452 -16 32 -34 51 -58 63 -86 40
-165 -21 -265 -204 -141 -259 -265 -372 -476 -433 -69 -20 -100 -23 -278 -23
-176 0 -204 2 -235 19 -134 71 -166 198 -158 626 4 197 7 231 25 270 28 64 45
75 118 74 155 -1 218 -49 319 -244 82 -155 108 -180 194 -180 45 0 58 4 82 28
48 49 52 94 48 609 -5 514 -8 541 -65 595 -77 71 -159 36 -248 -106 -86 -136
-161 -189 -293 -207 -129 -17 -157 6 -172 142 -13 108 -13 330 0 437 12 111
39 159 105 192 48 24 56 25 240 24 158 -1 203 -5 267 -22 194 -53 273 -131
448 -440 70 -124 118 -175 177 -191 66 -18 139 13 169 71 19 36 21 129 5 201
-6 27 -38 193 -71 370 -69 371 -84 415 -159 456 l-45 25 -1095 0 c-1008 1
-1098 0 -1133 -16z"/>
<path d="M14515 2763 c-63 -8 -199 -46 -265 -73 -164 -68 -350 -227 -439 -378
-188 -316 -188 -748 0 -1065 59 -100 198 -240 302 -305 274 -171 654 -200 963
-73 276 113 470 339 552 641 23 85 26 113 26 270 0 157 -3 185 -26 270 -120
445 -495 724 -965 719 -65 -1 -131 -4 -148 -6z m344 -228 c78 -19 188 -73 260
-128 113 -87 209 -241 252 -402 31 -114 31 -336 1 -450 -72 -269 -262 -462
-522 -532 -89 -23 -281 -23 -370 0 -261 70 -448 261 -521 532 -31 114 -31 335
0 450 79 293 278 484 566 541 84 16 241 11 334 -11z"/>
<path d="M11353 2745 c-209 -38 -391 -130 -529 -269 -123 -124 -192 -244 -242
-424 -24 -88 -27 -113 -27 -272 0 -159 3 -184 27 -272 50 -180 119 -300 242
-424 121 -121 272 -206 456 -254 119 -31 331 -38 460 -16 129 23 294 79 385
132 l75 44 0 135 0 135 -62 -50 c-84 -68 -242 -145 -353 -172 -130 -31 -338
-31 -448 0 -207 59 -350 178 -442 367 -60 124 -80 219 -79 380 1 378 188 642
521 737 110 31 318 31 448 0 111 -27 269 -104 353 -172 l62 -50 0 135 0 135
-75 44 c-89 52 -254 109 -379 131 -106 18 -293 18 -393 0z"/>
<path d="M17250 1781 l0 -941 125 0 125 0 0 390 0 391 137 -3 138 -3 130 -236
c166 -300 181 -323 270 -407 122 -117 238 -159 412 -150 138 8 133 4 133 107
l0 86 -108 0 c-100 0 -111 2 -160 30 -81 44 -130 107 -273 347 -71 120 -132
224 -135 231 -3 9 14 17 54 25 188 39 335 190 377 387 55 260 -50 511 -255
612 -132 65 -146 67 -577 71 l-393 3 0 -940z m791 701 c110 -44 170 -121 191
-247 21 -124 -19 -255 -96 -321 -80 -68 -122 -77 -393 -82 l-243 -4 0 342 0
342 243 -4 c221 -4 247 -6 298 -26z"/>
<path d="M20220 1781 l0 -941 125 0 125 0 0 369 0 369 268 4 c257 4 270 5 347
31 177 59 281 160 342 333 24 70 27 93 27 204 0 107 -4 136 -26 201 -56 170
-165 277 -343 337 l-80 26 -392 4 -393 3 0 -940z m715 718 c152 -28 240 -119
267 -278 22 -126 -17 -265 -94 -337 -81 -77 -158 -94 -435 -94 l-203 0 0 360
0 360 203 0 c112 0 230 -5 262 -11z"/>
</g>
</svg>
