<?xml version="1.0" standalone="no"?>
<!DOCTYPE svg PUBLIC "-//W3C//DTD SVG 20010904//EN"
 "http://www.w3.org/TR/2001/REC-SVG-20010904/DTD/svg10.dtd">
<svg version="1.0" xmlns="http://www.w3.org/2000/svg"
 width="3457.000000pt" height="2650.000000pt" viewBox="0 0 3457.000000 2650.000000"
 preserveAspectRatio="xMidYMid meet">

<g transform="translate(0.000000,2650.000000) scale(0.100000,-0.100000)"
fill="#000000" stroke="none">
<path d="M20610 26494 c-460 -41 -932 -154 -1361 -324 -918 -365 -1540 -937
-1979 -1820 -238 -478 -403 -1020 -442 -1457 -13 -146 -3 -252 27 -282 23 -23
430 -22 605 2 846 116 1630 414 2175 826 652 492 1131 1269 1369 2219 67 268
91 428 91 613 0 178 -4 188 -78 208 -43 12 -324 22 -407 15z"/>
<path d="M13938 25114 c-27 -8 -31 -43 -25 -208 15 -389 161 -885 361 -1230
201 -345 466 -597 836 -795 289 -154 695 -276 956 -288 147 -7 160 -4 175 50
16 59 5 294 -20 442 -91 522 -311 991 -619 1317 -300 317 -796 579 -1297 684
-114 24 -327 40 -367 28z"/>
<path d="M12500 22920 c-1223 -107 -2284 -889 -2915 -2150 -343 -685 -529
-1446 -607 -2490 -26 -357 -14 -957 28 -1370 86 -843 353 -1806 733 -2646 45
-98 86 -186 91 -194 8 -12 614 590 2922 2897 2406 2404 2923 2916 2968 2940
49 25 65 28 150 28 172 0 10 147 1722 -1564 l1517 -1515 3 424 3 425 27 57
c14 31 46 77 70 101 24 24 71 57 104 73 l59 29 385 0 385 0 61 -28 c73 -34
142 -101 181 -177 l28 -55 2 -1080 3 -1080 997 -997 c549 -549 1001 -998 1004
-998 7 0 147 289 229 475 355 799 588 1678 674 2545 52 516 56 1102 11 1580
-111 1170 -518 2095 -1239 2816 -605 604 -1276 953 -2066 1076 -127 19 -184
22 -465 22 -423 1 -487 -11 -1015 -189 -299 -101 -435 -139 -1020 -285 -620
-155 -805 -188 -1115 -197 -258 -8 -313 3 -500 96 -222 110 -379 218 -822 562
-566 442 -741 543 -1168 682 -398 129 -722 185 -1105 192 -118 2 -262 0 -320
-5z m7671 -2941 c51 -23 107 -75 132 -123 22 -40 22 -47 22 -476 0 -405 -1
-437 -19 -470 -26 -49 -74 -98 -121 -123 -39 -22 -48 -22 -476 -22 l-436 0
-48 30 c-66 41 -111 102 -125 169 -7 37 -10 183 -8 448 3 391 3 393 27 438 13
25 33 56 45 68 24 27 86 62 131 73 17 4 212 7 435 6 350 -2 410 -4 441 -18z"/>
<path d="M15795 18140 c-27 -13 -905 -885 -2617 -2597 -2384 -2385 -2577
-2581 -2589 -2623 -19 -72 -1 -115 100 -248 477 -626 1134 -1259 1666 -1605
687 -447 1405 -617 2115 -501 223 37 419 93 753 215 449 165 764 229 1130 229
193 0 314 -11 477 -45 121 -24 594 -162 840 -245 621 -208 1200 -209 1810 -2
465 158 976 465 1454 875 227 194 641 628 690 724 18 36 21 98 6 140 -15 38
-5645 5671 -5687 5689 -45 20 -101 17 -148 -6z m-304 -2561 c56 -26 110 -79
135 -134 23 -49 24 -55 24 -390 0 -308 -2 -344 -19 -380 -27 -60 -66 -101
-123 -129 l-52 -26 -334 0 c-228 0 -347 4 -374 12 -50 15 -122 78 -151 132
-21 39 -22 53 -25 368 -2 204 1 341 7 365 25 92 105 172 194 194 18 4 178 7
357 6 276 -2 330 -4 361 -18z m1409 -5 c58 -26 108 -76 134 -134 20 -43 21
-61 21 -385 0 -376 0 -374 -66 -450 -19 -21 -56 -49 -84 -61 -49 -23 -55 -24
-390 -24 -308 0 -344 2 -380 19 -61 28 -105 70 -131 126 -24 49 -24 54 -24
391 0 369 1 378 55 443 15 17 41 41 58 53 60 43 102 47 442 45 301 -2 323 -3
365 -23z m-1396 -1378 c50 -25 97 -72 122 -122 17 -36 19 -66 22 -379 2 -299
1 -345 -14 -384 -21 -55 -75 -116 -128 -144 -39 -21 -54 -22 -369 -25 -369 -3
-402 1 -472 61 -22 19 -51 56 -65 83 -25 49 -25 50 -28 372 -3 367 1 396 65
471 20 24 60 54 87 67 51 24 51 24 396 22 318 -3 348 -5 384 -22z m1368 14
c57 -16 120 -70 153 -130 l30 -55 3 -307 c2 -205 0 -326 -8 -363 -16 -77 -63
-142 -130 -179 l-55 -31 -350 0 c-342 0 -351 1 -391 22 -55 29 -103 78 -125
128 -17 36 -19 73 -19 386 l0 347 28 52 c30 59 81 105 138 125 48 17 667 21
726 5z"/>
<path d="M1722 8375 c-100 -26 -270 -102 -349 -156 -72 -50 -143 -119 -165
-162 -10 -21 -33 -100 -49 -175 -16 -75 -43 -184 -60 -242 -39 -135 -717
-1916 -776 -2038 -55 -112 -110 -189 -218 -303 -94 -99 -115 -146 -96 -216 17
-62 45 -91 108 -109 48 -14 75 -15 223 -4 127 9 220 9 383 0 222 -12 296 -7
354 24 39 20 59 45 71 89 18 67 1 102 -108 212 -102 104 -133 151 -145 222 -8
52 13 141 54 220 32 64 62 96 104 112 18 7 175 11 447 11 l418 0 30 -25 c31
-26 66 -98 88 -179 16 -61 5 -131 -31 -192 -14 -23 -70 -85 -125 -136 -138
-127 -161 -179 -120 -262 26 -52 54 -72 127 -91 51 -14 95 -14 366 -4 235 9
376 9 595 0 315 -13 404 -7 481 32 56 28 82 62 88 120 8 71 -12 112 -102 206
-111 117 -160 181 -207 274 -21 44 -257 640 -524 1326 -267 685 -498 1275
-515 1310 -37 81 -92 134 -152 150 -63 15 -88 14 -195 -14z m-207 -1224 c73
-109 265 -641 265 -732 0 -18 -7 -32 -19 -39 -12 -6 -125 -10 -298 -10 -294 0
-303 1 -303 46 0 50 116 386 202 582 58 134 92 192 113 192 8 0 26 -17 40 -39z"/>
<path d="M22161 8385 c-519 -74 -925 -342 -1175 -774 -189 -328 -278 -782
-236 -1202 76 -753 509 -1282 1188 -1453 237 -60 562 -77 797 -42 454 69 808
266 1048 585 215 285 317 632 317 1076 0 218 -19 379 -65 561 -57 222 -126
380 -245 558 -241 360 -618 600 -1070 681 -132 24 -424 29 -559 10z m270 -529
c212 -105 378 -352 507 -759 84 -260 130 -528 139 -803 11 -345 -40 -549 -172
-693 -216 -232 -559 -164 -770 154 -128 191 -220 483 -272 855 -25 180 -25
617 0 749 52 277 164 461 315 518 61 22 186 12 253 -21z"/>
<path d="M32745 8389 c-38 -5 -113 -20 -165 -33 -421 -107 -696 -401 -771
-826 -16 -92 -16 -323 0 -407 62 -321 258 -556 613 -734 118 -59 182 -85 483
-195 378 -138 511 -217 572 -337 22 -44 25 -61 21 -127 -2 -64 -8 -85 -33
-126 -35 -57 -105 -107 -178 -129 -116 -34 -371 -10 -531 50 -229 86 -411 218
-596 432 -126 146 -173 189 -229 215 -57 26 -100 18 -140 -27 -56 -64 -58
-144 -12 -435 16 -107 40 -269 51 -360 31 -242 45 -295 90 -344 35 -37 42 -40
102 -44 37 -2 98 3 142 12 109 22 217 20 391 -8 410 -67 573 -81 772 -66 600
46 995 322 1119 784 32 120 48 279 39 391 -29 375 -229 647 -636 864 -122 65
-247 117 -554 230 -336 125 -481 196 -561 275 -47 48 -63 71 -73 110 -34 136
59 275 218 323 81 26 251 23 357 -5 257 -68 480 -238 702 -534 113 -151 149
-178 242 -178 38 0 55 6 81 27 71 60 75 125 19 356 -22 90 -58 261 -80 378
-22 118 -48 237 -57 264 -52 159 -147 195 -366 139 -124 -32 -180 -30 -377 16
-242 57 -464 73 -655 49z"/>
<path d="M4955 8329 c-126 -5 -456 -7 -733 -4 -378 4 -512 3 -543 -6 -87 -27
-128 -121 -96 -223 12 -36 38 -75 87 -131 82 -93 143 -208 166 -310 32 -146
40 -1252 13 -1800 -16 -326 -38 -389 -185 -545 -97 -103 -120 -145 -111 -210
7 -53 32 -86 85 -112 46 -23 52 -23 287 -18 300 6 495 6 900 0 316 -5 321 -4
377 18 96 39 140 110 123 200 -10 56 -80 117 -215 186 -151 78 -201 115 -249
186 -59 89 -71 158 -71 397 0 200 8 260 35 283 20 17 116 15 235 -5 363 -59
718 -6 978 147 88 51 251 218 305 312 196 338 207 814 25 1134 -84 148 -266
311 -431 387 -241 111 -456 136 -982 114z m128 -514 c184 -39 330 -186 384
-386 22 -84 22 -277 -1 -372 -35 -149 -111 -254 -217 -301 -57 -26 -69 -28
-168 -24 -129 4 -178 26 -228 101 -59 87 -68 159 -68 517 0 406 10 445 118
470 51 12 106 11 180 -5z"/>
<path d="M8085 8329 c-126 -5 -456 -7 -733 -4 -378 4 -512 3 -543 -6 -87 -27
-128 -121 -96 -223 12 -36 38 -75 87 -131 82 -93 143 -208 166 -310 32 -146
40 -1252 13 -1800 -16 -326 -38 -389 -185 -545 -97 -103 -120 -145 -111 -210
7 -53 32 -86 85 -112 46 -23 52 -23 287 -18 300 6 495 6 900 0 316 -5 321 -4
377 18 96 39 140 110 123 200 -10 56 -80 117 -215 186 -151 78 -201 115 -249
186 -59 89 -71 158 -71 397 0 200 8 260 35 283 20 17 116 15 235 -5 363 -59
718 -6 978 147 88 51 251 218 305 312 196 338 207 814 25 1134 -84 148 -266
311 -431 387 -241 111 -456 136 -982 114z m128 -514 c184 -39 330 -186 384
-386 22 -84 22 -277 -1 -372 -35 -149 -111 -254 -217 -301 -57 -26 -69 -28
-168 -24 -129 4 -178 26 -228 101 -59 87 -68 159 -68 517 0 406 10 445 118
470 51 12 106 11 180 -5z"/>
<path d="M9923 8316 c-61 -19 -103 -84 -103 -158 0 -50 33 -110 106 -196 152
-177 172 -247 185 -647 11 -320 4 -1211 -12 -1485 -16 -291 -45 -373 -174
-503 -96 -97 -115 -127 -121 -190 -7 -71 17 -114 82 -147 l49 -25 400 5 c220
3 564 5 765 5 201 0 552 -2 780 -5 455 -5 468 -4 514 51 36 42 44 83 61 296 8
103 24 289 35 413 23 260 24 310 9 380 -20 92 -89 144 -166 125 -16 -3 -51
-30 -78 -58 -40 -41 -62 -79 -109 -184 -128 -292 -260 -421 -495 -485 -63 -18
-105 -21 -241 -22 -174 0 -216 8 -280 54 -38 27 -77 109 -90 190 -12 80 -13
1399 -1 1655 17 328 47 397 264 588 42 38 84 81 92 97 47 91 15 209 -65 243
-31 13 -1366 16 -1407 3z"/>
<path d="M12841 8316 c-46 -13 -88 -66 -97 -122 -11 -76 14 -136 96 -229 82
-93 143 -208 166 -310 32 -146 40 -1252 13 -1800 -16 -326 -38 -389 -185 -545
-97 -103 -120 -145 -111 -210 7 -53 32 -86 85 -112 l47 -23 495 5 c272 3 623
5 780 5 157 0 474 -2 705 -5 559 -7 531 -19 560 256 9 82 29 244 45 359 42
295 48 372 39 445 -15 105 -56 150 -137 150 -73 0 -122 -49 -209 -209 -141
-261 -269 -384 -463 -445 -166 -53 -455 -61 -555 -17 -62 28 -91 54 -120 111
-38 75 -45 146 -45 459 0 320 5 357 50 403 25 25 36 28 92 28 156 0 227 -53
322 -240 81 -159 123 -200 203 -200 55 0 98 30 117 82 15 39 17 98 14 563 -4
561 -5 574 -57 626 -41 40 -90 46 -147 19 -39 -19 -56 -38 -108 -119 -104
-159 -178 -211 -318 -219 -99 -6 -124 1 -145 41 -16 28 -18 67 -21 304 -3 231
-1 282 13 330 20 68 65 117 121 132 69 18 206 23 329 12 312 -28 419 -104 600
-426 92 -163 127 -209 178 -234 54 -26 90 -26 145 -1 34 15 47 29 64 67 25 57
22 124 -17 313 -14 69 -44 224 -66 345 -21 121 -44 236 -50 255 -21 68 -58
119 -102 142 l-42 21 -1126 1 c-657 1 -1139 -3 -1158 -8z"/>
<path d="M17144 8317 c-62 -20 -104 -84 -104 -159 0 -50 33 -110 106 -196 152
-177 172 -247 185 -647 17 -509 -4 -1615 -33 -1735 -21 -91 -68 -167 -156
-257 -46 -48 -93 -105 -103 -127 -40 -88 -13 -162 76 -206 l50 -25 240 5 c132
3 310 5 395 5 85 0 261 -2 390 -5 l235 -5 49 25 c58 29 84 61 93 113 10 61
-18 114 -113 213 -53 56 -96 111 -115 149 -55 113 -78 282 -86 650 -5 248 -5
263 15 307 38 86 18 83 502 83 473 0 459 2 497 -68 38 -68 17 -748 -28 -892
-25 -82 -66 -143 -164 -245 -58 -60 -87 -99 -95 -127 -25 -81 11 -154 92 -189
39 -17 64 -19 283 -14 132 3 310 5 395 5 85 0 261 -2 390 -5 l235 -5 50 25
c85 43 116 120 81 204 -7 18 -54 76 -104 129 -170 181 -177 217 -192 977 -11
587 1 1235 25 1350 21 99 81 221 148 297 75 85 93 111 107 160 25 82 -12 178
-79 205 -17 8 -235 12 -661 12 -620 2 -635 1 -674 -19 -53 -26 -80 -75 -80
-140 0 -67 27 -121 117 -227 98 -116 124 -167 149 -290 17 -83 21 -141 22
-298 1 -176 -1 -199 -19 -234 -11 -22 -33 -49 -48 -60 -28 -20 -40 -21 -445
-21 -468 0 -462 -1 -498 72 -17 34 -19 61 -18 248 1 324 33 432 174 590 107
119 132 181 110 266 -13 50 -32 74 -75 97 -27 14 -103 16 -661 17 -355 0 -644
-3 -660 -8z"/>
<path d="M24496 8320 c-68 -21 -115 -108 -100 -188 10 -56 36 -100 104 -177
72 -83 135 -203 155 -300 53 -249 37 -1019 -36 -1735 -37 -370 -66 -450 -214
-596 -89 -86 -109 -122 -109 -194 -1 -69 25 -116 79 -144 33 -17 57 -21 135
-20 147 1 654 2 760 0 119 -1 164 18 198 84 45 88 25 157 -74 262 -128 136
-162 218 -188 452 -24 212 -28 403 -16 701 11 280 19 345 46 345 28 0 29 -2
430 -978 145 -354 279 -676 298 -715 60 -129 136 -179 237 -158 73 16 118 42
176 103 84 90 125 183 370 843 246 664 345 895 385 903 11 2 20 -8 26 -30 22
-69 52 -598 52 -913 0 -318 -22 -383 -181 -551 -105 -110 -127 -153 -114 -220
8 -43 48 -90 94 -112 32 -15 65 -16 281 -12 313 6 466 6 775 0 229 -5 253 -3
287 14 67 33 100 116 78 196 -9 33 -33 66 -105 140 -155 162 -185 249 -224
640 -68 681 -84 1440 -36 1675 22 108 80 224 160 319 78 93 93 121 101 178 13
93 -41 179 -120 194 -54 10 -691 -15 -778 -30 -190 -34 -289 -125 -404 -371
-57 -122 -233 -545 -409 -984 -77 -189 -149 -356 -161 -370 -23 -26 -23 -26
-42 -6 -11 11 -84 171 -162 355 -174 409 -357 824 -417 945 -96 192 -215 340
-314 391 -89 45 -161 54 -514 64 -393 11 -471 11 -509 0z"/>
<path d="M28781 8316 c-46 -13 -88 -66 -97 -122 -11 -76 14 -136 96 -229 82
-93 143 -208 166 -310 32 -146 40 -1252 13 -1800 -16 -326 -38 -389 -185 -545
-97 -103 -120 -145 -111 -210 7 -53 32 -86 85 -112 l47 -23 495 5 c272 3 623
5 780 5 157 0 474 -2 705 -5 559 -7 531 -19 560 256 9 82 29 244 45 359 42
295 48 372 39 445 -15 105 -56 150 -137 150 -73 0 -122 -49 -209 -209 -141
-261 -269 -384 -463 -445 -166 -53 -455 -61 -555 -17 -62 28 -91 54 -120 111
-38 75 -45 146 -45 459 0 320 5 357 50 403 25 25 36 28 92 28 156 0 227 -53
322 -240 81 -159 123 -200 203 -200 55 0 98 30 117 82 15 39 17 98 14 563 -4
561 -5 574 -57 626 -41 40 -90 46 -147 19 -39 -19 -56 -38 -108 -119 -104
-159 -178 -211 -318 -219 -99 -6 -124 1 -145 41 -16 28 -18 67 -21 304 -3 231
-1 282 13 330 20 68 65 117 121 132 69 18 206 23 329 12 312 -28 419 -104 600
-426 92 -163 127 -209 178 -234 54 -26 90 -26 145 -1 34 15 47 29 64 67 25 57
22 124 -17 313 -14 69 -44 224 -66 345 -21 121 -44 236 -50 255 -21 68 -58
119 -102 142 l-42 21 -1126 1 c-657 1 -1139 -3 -1158 -8z"/>
<path d="M15771 2829 c-99 -15 -268 -74 -356 -124 -226 -128 -391 -347 -462
-610 -24 -90 -26 -118 -26 -270 0 -152 2 -180 26 -270 90 -336 323 -584 647
-689 138 -45 254 -60 410 -53 470 21 830 310 943 757 31 123 31 387 0 510 -93
369 -353 631 -721 727 -78 20 -126 26 -247 28 -82 2 -179 -1 -214 -6z m350
-224 c215 -45 393 -181 494 -376 71 -137 88 -215 89 -399 1 -182 -13 -247 -79
-385 -75 -155 -184 -268 -329 -339 -101 -50 -175 -67 -307 -73 -426 -19 -740
255 -790 688 -31 268 49 516 223 690 63 64 94 86 180 128 58 28 134 57 173 65
93 19 257 20 346 1z"/>
<path d="M12517 2814 c-221 -40 -423 -146 -565 -299 -113 -120 -183 -250 -229
-420 -24 -90 -26 -118 -26 -270 0 -152 2 -180 26 -270 29 -106 86 -236 137
-311 127 -184 339 -328 577 -391 87 -23 118 -26 273 -27 193 -1 274 11 430 66
86 30 200 87 233 116 15 13 17 34 17 149 l0 133 -62 -50 c-79 -63 -238 -143
-343 -172 -66 -18 -109 -21 -250 -22 -152 -1 -178 1 -245 22 -264 83 -428 256
-501 527 -31 114 -31 345 0 460 76 290 277 483 561 541 111 22 319 15 435 -15
104 -27 263 -107 343 -171 l62 -50 0 133 c0 153 5 143 -100 201 -85 46 -252
100 -369 120 -115 19 -298 19 -404 0z"/>
<path d="M18610 1826 l0 -966 130 0 130 0 0 400 0 400 138 0 137 0 143 -257
c156 -282 216 -371 298 -438 131 -106 316 -150 484 -114 l50 11 0 87 0 87
-102 0 c-93 -1 -109 2 -160 27 -91 44 -156 125 -307 382 -73 124 -131 227
-130 229 2 1 29 8 60 15 142 30 273 130 334 255 54 111 68 182 62 311 -13 268
-145 436 -402 511 -52 15 -115 18 -462 21 l-403 4 0 -965z m793 724 c82 -26
154 -88 188 -162 21 -46 24 -68 24 -168 0 -105 -3 -119 -27 -166 -26 -50 -85
-111 -129 -135 -60 -31 -126 -39 -356 -39 l-233 0 0 345 0 345 234 0 c206 0
242 -2 299 -20z"/>
<path d="M21680 1826 l0 -966 130 0 130 0 0 384 0 384 273 4 c251 4 277 6 342
27 105 35 158 65 228 131 109 102 167 247 167 420 0 279 -151 481 -415 557
-51 14 -119 17 -457 21 l-398 3 0 -965z m832 706 c75 -37 110 -72 147 -152 23
-49 26 -67 26 -170 0 -103 -3 -121 -26 -170 -37 -80 -72 -115 -147 -152 l-66
-33 -253 -3 -253 -3 0 361 0 362 253 -4 253 -3 66 -33z"/>
</g>
</svg>
