<?xml version="1.0" encoding="utf-8"?>
<!-- Generator: Adobe Illustrator 27.5.0, SVG Export Plug-In . SVG Version: 6.00 Build 0)  -->
<svg version="1.1" id="Layer_1" xmlns="http://www.w3.org/2000/svg" xmlns:xlink="http://www.w3.org/1999/xlink" x="0px" y="0px"
	 viewBox="0 0 1000 1000" style="enable-background:new 0 0 1000 1000;" xml:space="preserve">
<g>
	<g>
		<path style="fill:#fcd34d;" d="M939.809,500.152"/>
		<circle style="fill:#fcd34d;" cx="938.884" cy="471.388" r="0.036"/>
		<circle style="fill:#fcd34d;" cx="936.096" cy="442.745" r="0.072"/>
		<path style="fill:#fcd34d;" d="M931.441,414.233c-0.06,0-0.109,0.049-0.109,0.109c0,0.06,0.049,0.109,0.109,0.109
			c0.06,0,0.109-0.049,0.109-0.109C931.55,414.282,931.501,414.233,931.441,414.233z"/>
		<path style="fill:#fcd34d;" d="M924.93,386.163c-0.08,0-0.145,0.065-0.145,0.145c0,0.08,0.065,0.145,0.145,0.145
			s0.145-0.065,0.145-0.145C925.075,386.228,925.01,386.163,924.93,386.163z"/>
		<path style="fill:#fcd34d;" d="M916.586,358.584c-0.1,0-0.181,0.081-0.181,0.181c0,0.1,0.081,0.181,0.181,0.181
			s0.181-0.081,0.181-0.181C916.767,358.665,916.686,358.584,916.586,358.584z"/>
		<path style="fill:#fcd34d;" d="M906.445,331.615c-0.12,0-0.217,0.097-0.217,0.217s0.097,0.217,0.217,0.217
			s0.217-0.097,0.217-0.217S906.565,331.615,906.445,331.615z"/>
		<path style="fill:#fcd34d;" d="M894.553,305.391c-0.13,0-0.236,0.106-0.236,0.236c0,0.13,0.106,0.236,0.236,0.236
			s0.236-0.106,0.236-0.236C894.789,305.496,894.683,305.391,894.553,305.391z"/>
		<circle style="fill:#fcd34d;" cx="880.967" cy="280.26" r="0.25"/>
		<path style="fill:#fcd34d;" d="M865.748,255.572c-0.146,0-0.264,0.118-0.264,0.264c0,0.146,0.118,0.264,0.264,0.264
			c0.146,0,0.264-0.118,0.264-0.264C866.012,255.69,865.894,255.572,865.748,255.572z"/>
		<path style="fill:#fcd34d;" d="M848.967,232.179c-0.153,0-0.278,0.124-0.278,0.278c0,0.153,0.124,0.278,0.278,0.278
			c0.154,0,0.278-0.124,0.278-0.278C849.245,232.303,849.121,232.179,848.967,232.179z"/>
		<path style="fill:#fcd34d;" d="M830.699,209.929c-0.161,0-0.292,0.131-0.292,0.292c0,0.161,0.131,0.292,0.292,0.292
			c0.161,0,0.292-0.131,0.292-0.292C830.99,210.059,830.86,209.929,830.699,209.929z"/>
		<path style="fill:#fcd34d;" d="M811.023,188.914c-0.169,0-0.306,0.137-0.306,0.306c0,0.169,0.137,0.306,0.306,0.306
			c0.169,0,0.306-0.137,0.306-0.306C811.328,189.051,811.191,188.914,811.023,188.914z"/>
		<path style="fill:#fcd34d;" d="M790.023,169.223c-0.177,0-0.32,0.143-0.32,0.32c0,0.176,0.143,0.32,0.32,0.32
			s0.32-0.143,0.32-0.32C790.343,169.366,790.2,169.223,790.023,169.223z"/>
		<circle style="fill:#fcd34d;" cx="767.788" cy="151.273" r="0.333"/>
		<path style="fill:#fcd34d;" d="M744.411,134.143c-0.192,0-0.347,0.156-0.347,0.347c0,0.192,0.156,0.347,0.347,0.347
			c0.192,0,0.347-0.156,0.347-0.347C744.758,134.299,744.602,134.143,744.411,134.143z"/>
		<path style="fill:#fcd34d;" d="M719.987,118.909c-0.2,0-0.361,0.162-0.361,0.361c0,0.2,0.162,0.361,0.361,0.361
			s0.361-0.162,0.361-0.361C720.348,119.071,720.187,118.909,719.987,118.909z"/>
		<path style="fill:#fcd34d;" d="M694.62,105.307c-0.207,0-0.375,0.168-0.375,0.375c0,0.207,0.168,0.375,0.375,0.375
			c0.207,0,0.375-0.168,0.375-0.375C694.995,105.475,694.827,105.307,694.62,105.307z"/>
		<path style="fill:#fcd34d;" d="M668.414,93.4c-0.215,0-0.389,0.174-0.389,0.389c0,0.215,0.174,0.389,0.389,0.389
			c0.215,0,0.389-0.174,0.389-0.389C668.803,93.574,668.629,93.4,668.414,93.4z"/>
		<circle style="fill:#fcd34d;" cx="641.483" cy="83.646" r="0.403"/>
		<circle style="fill:#fcd34d;" cx="613.942" cy="75.301" r="0.417"/>
		<path style="fill:#fcd34d;" d="M585.91,68.357c-0.238,0-0.431,0.193-0.431,0.431c0,0.238,0.193,0.431,0.431,0.431
			s0.431-0.193,0.431-0.431C586.341,68.55,586.148,68.357,585.91,68.357z"/>
		<path style="fill:#fcd34d;" d="M557.515,63.688c-0.246,0-0.445,0.199-0.445,0.445c0,0.246,0.199,0.445,0.445,0.445
			s0.445-0.199,0.445-0.445C557.96,63.887,557.761,63.688,557.515,63.688z"/>
		<path style="fill:#fcd34d;" d="M528.874,60.884c-0.253,0-0.459,0.205-0.459,0.459c0,0.253,0.205,0.459,0.459,0.459
			c0.253,0,0.459-0.205,0.459-0.459C529.332,61.09,529.127,60.884,528.874,60.884z"/>
		<path style="fill:#fcd34d;" d="M500.111,59.942c-0.261,0-0.473,0.212-0.473,0.473s0.212,0.473,0.473,0.473
			c0.261,0,0.473-0.212,0.473-0.473S500.372,59.942,500.111,59.942z"/>
		<path style="fill:#fcd34d;" d="M471.347,60.871c-0.258,0-0.467,0.209-0.467,0.467c0,0.258,0.209,0.467,0.467,0.467
			c0.258,0,0.467-0.209,0.467-0.467C471.814,61.08,471.605,60.871,471.347,60.871z"/>
		<circle style="fill:#fcd34d;" cx="442.704" cy="64.123" r="0.455"/>
		<circle style="fill:#fcd34d;" cx="414.3" cy="68.775" r="0.443"/>
		<circle style="fill:#fcd34d;" cx="386.265" cy="75.284" r="0.431"/>
		<path style="fill:#fcd34d;" d="M358.722,83.207c-0.232,0-0.419,0.188-0.419,0.419s0.188,0.419,0.419,0.419
			c0.232,0,0.419-0.188,0.419-0.419S358.953,83.207,358.722,83.207z"/>
		<path style="fill:#fcd34d;" d="M331.789,93.358c-0.225,0-0.407,0.182-0.407,0.407c0,0.225,0.182,0.407,0.407,0.407
			s0.407-0.182,0.407-0.407C332.196,93.54,332.014,93.358,331.789,93.358z"/>
		<circle style="fill:#fcd34d;" cx="305.582" cy="105.654" r="0.395"/>
		<path style="fill:#fcd34d;" d="M280.214,118.855c-0.212,0-0.383,0.172-0.383,0.383c0,0.212,0.172,0.383,0.383,0.383
			c0.212,0,0.383-0.172,0.383-0.383C280.598,119.026,280.426,118.855,280.214,118.855z"/>
		<path style="fill:#fcd34d;" d="M255.788,134.084c-0.205,0-0.371,0.166-0.371,0.371c0,0.205,0.166,0.371,0.371,0.371
			c0.205,0,0.371-0.166,0.371-0.371C256.159,134.25,255.993,134.084,255.788,134.084z"/>
		<path style="fill:#fcd34d;" d="M232.408,150.875c-0.198,0-0.359,0.161-0.359,0.359s0.161,0.359,0.359,0.359
			s0.359-0.161,0.359-0.359S232.606,150.875,232.408,150.875z"/>
		<path style="fill:#fcd34d;" d="M210.17,169.153c-0.192,0-0.347,0.155-0.347,0.347c0,0.192,0.155,0.347,0.347,0.347
			c0.192,0,0.347-0.155,0.347-0.347C210.517,169.309,210.362,169.153,210.17,169.153z"/>
		<circle style="fill:#fcd34d;" cx="189.168" cy="189.175" r="0.335"/>
		<circle style="fill:#fcd34d;" cx="169.489" cy="210.173" r="0.323"/>
		<path style="fill:#fcd34d;" d="M151.217,232.098c-0.17,0-0.308,0.138-0.308,0.308c0,0.17,0.138,0.308,0.308,0.308
			c0.17,0,0.308-0.138,0.308-0.308C151.525,232.236,151.387,232.098,151.217,232.098z"/>
		<circle style="fill:#fcd34d;" cx="134.433" cy="255.782" r="0.292"/>
		<path style="fill:#fcd34d;" d="M119.211,279.929c-0.152,0-0.275,0.123-0.275,0.275c0,0.152,0.123,0.276,0.275,0.276
			c0.152,0,0.275-0.123,0.275-0.276C119.486,280.052,119.363,279.929,119.211,279.929z"/>
		<path style="fill:#fcd34d;" d="M105.62,305.312c-0.143,0-0.259,0.116-0.259,0.259c0,0.143,0.116,0.259,0.259,0.259
			c0.143,0,0.259-0.116,0.259-0.259C105.879,305.428,105.763,305.312,105.62,305.312z"/>
		<circle style="fill:#fcd34d;" cx="93.724" cy="331.775" r="0.243"/>
		<path style="fill:#fcd34d;" d="M83.58,358.479c-0.125,0-0.227,0.101-0.227,0.227c0,0.125,0.101,0.227,0.227,0.227
			c0.125,0,0.227-0.101,0.227-0.227C83.806,358.58,83.705,358.479,83.58,358.479z"/>
		<circle style="fill:#fcd34d;" cx="75.232" cy="386.246" r="0.21"/>
		<path style="fill:#fcd34d;" d="M68.717,414.083c-0.107,0-0.194,0.087-0.194,0.194c0,0.107,0.087,0.194,0.194,0.194
			c0.107,0,0.194-0.087,0.194-0.194C68.911,414.17,68.824,414.083,68.717,414.083z"/>
		<circle style="fill:#fcd34d;" cx="64.059" cy="442.671" r="0.178"/>
		<circle style="fill:#fcd34d;" cx="61.267" cy="471.313" r="0.162"/>
		<path style="fill:#fcd34d;" d="M60.336,499.93c-0.08,0-0.145,0.065-0.145,0.145s0.065,0.145,0.145,0.145
			c0.08,0,0.145-0.065,0.145-0.145S60.416,499.93,60.336,499.93z"/>
		<path style="fill:#fcd34d;" d="M61.257,528.71c-0.071,0-0.129,0.058-0.129,0.129s0.058,0.129,0.129,0.129
			c0.071,0,0.129-0.058,0.129-0.129S61.328,528.71,61.257,528.71z"/>
		<path style="fill:#fcd34d;" d="M64.039,557.37c-0.062,0-0.113,0.05-0.113,0.113c0,0.062,0.051,0.113,0.113,0.113
			c0.062,0,0.113-0.05,0.113-0.113C64.152,557.42,64.102,557.37,64.039,557.37z"/>
		<path style="fill:#fcd34d;" d="M68.689,585.769c-0.065,0-0.117,0.053-0.117,0.117c0,0.065,0.053,0.117,0.117,0.117
			c0.065,0,0.117-0.053,0.117-0.117C68.807,585.822,68.754,585.769,68.689,585.769z"/>
		<path style="fill:#fcd34d;" d="M75.196,613.794c-0.071,0-0.128,0.057-0.128,0.128s0.057,0.128,0.128,0.128
			c0.071,0,0.128-0.057,0.128-0.128S75.266,613.794,75.196,613.794z"/>
		<path style="fill:#fcd34d;" d="M83.535,641.327c-0.077,0-0.139,0.062-0.139,0.139c0,0.077,0.062,0.139,0.139,0.139
			c0.077,0,0.139-0.062,0.139-0.139C83.674,641.39,83.612,641.327,83.535,641.327z"/>
		<path style="fill:#fcd34d;" d="M93.671,668.251c-0.083,0-0.15,0.067-0.15,0.15c0,0.083,0.067,0.15,0.15,0.15
			c0.083,0,0.15-0.067,0.15-0.15C93.821,668.318,93.754,668.251,93.671,668.251z"/>
		<path style="fill:#fcd34d;" d="M105.559,694.448c-0.089,0-0.16,0.072-0.16,0.16s0.072,0.16,0.16,0.16
			c0.089,0,0.16-0.072,0.16-0.16S105.647,694.448,105.559,694.448z"/>
		<path style="fill:#fcd34d;" d="M119.14,719.806c-0.095,0-0.171,0.077-0.171,0.171c0,0.094,0.077,0.171,0.171,0.171
			c0.095,0,0.171-0.077,0.171-0.171C119.311,719.882,119.235,719.806,119.14,719.806z"/>
		<circle style="fill:#fcd34d;" cx="134.355" cy="744.404" r="0.182"/>
		<path style="fill:#fcd34d;" d="M151.132,767.593c-0.107,0-0.193,0.087-0.193,0.193s0.087,0.193,0.193,0.193
			s0.193-0.087,0.193-0.193S151.239,767.593,151.132,767.593z"/>
		<path style="fill:#fcd34d;" d="M169.396,789.82c-0.114,0-0.206,0.092-0.206,0.206c0,0.114,0.092,0.206,0.206,0.206
			c0.114,0,0.206-0.092,0.206-0.206C169.602,789.912,169.51,789.82,169.396,789.82z"/>
		<path style="fill:#fcd34d;" d="M189.069,810.811c-0.121,0-0.218,0.098-0.218,0.218c0,0.121,0.098,0.218,0.218,0.218
			c0.12,0,0.218-0.098,0.218-0.218C189.287,810.909,189.189,810.811,189.069,810.811z"/>
		<path style="fill:#fcd34d;" d="M210.065,830.48c-0.127,0-0.231,0.103-0.231,0.231c0,0.127,0.103,0.231,0.231,0.231
			c0.127,0,0.231-0.103,0.231-0.231C210.296,830.583,210.192,830.48,210.065,830.48z"/>
		<path style="fill:#fcd34d;" d="M232.297,848.741c-0.134,0-0.243,0.109-0.243,0.243c0,0.134,0.109,0.243,0.243,0.243
			s0.243-0.109,0.243-0.243C232.54,848.85,232.431,848.741,232.297,848.741z"/>
		<path style="fill:#fcd34d;" d="M255.671,865.515c-0.141,0-0.255,0.114-0.255,0.255s0.114,0.255,0.255,0.255
			c0.141,0,0.255-0.114,0.255-0.255S255.812,865.515,255.671,865.515z"/>
		<path style="fill:#fcd34d;" d="M280.092,880.727c-0.148,0-0.268,0.12-0.268,0.268s0.12,0.268,0.268,0.268
			c0.148,0,0.268-0.12,0.268-0.268S280.24,880.727,280.092,880.727z"/>
		<path style="fill:#fcd34d;" d="M305.458,894.312c-0.152,0-0.275,0.123-0.275,0.275s0.123,0.275,0.275,0.275
			c0.152,0,0.275-0.123,0.275-0.275S305.61,894.312,305.458,894.312z"/>
		<path style="fill:#fcd34d;" d="M331.661,906.225c-0.144,0-0.26,0.116-0.26,0.26c0,0.144,0.116,0.26,0.26,0.26
			c0.144,0,0.26-0.116,0.26-0.26C331.921,906.342,331.804,906.225,331.661,906.225z"/>
		<path style="fill:#fcd34d;" d="M358.59,916.388c-0.135,0-0.245,0.11-0.245,0.245s0.11,0.245,0.245,0.245
			c0.135,0,0.245-0.11,0.245-0.245S358.725,916.388,358.59,916.388z"/>
		<path style="fill:#fcd34d;" d="M386.13,924.753c-0.127,0-0.23,0.103-0.23,0.23s0.103,0.23,0.23,0.23s0.23-0.103,0.23-0.23
			S386.257,924.753,386.13,924.753z"/>
		<path style="fill:#fcd34d;" d="M414.161,931.285c-0.119,0-0.215,0.096-0.215,0.215c0,0.119,0.096,0.215,0.215,0.215
			c0.119,0,0.215-0.096,0.215-0.215C414.375,931.382,414.279,931.285,414.161,931.285z"/>
		<path style="fill:#fcd34d;" d="M442.555,935.961c-0.11,0-0.2,0.089-0.2,0.2s0.089,0.2,0.2,0.2s0.2-0.089,0.2-0.2
			S442.665,935.961,442.555,935.961z"/>
		<path style="fill:#fcd34d;" d="M471.195,938.771c-0.102,0-0.184,0.083-0.184,0.185c0,0.102,0.083,0.184,0.184,0.184
			s0.184-0.083,0.184-0.184C471.38,938.853,471.297,938.771,471.195,938.771z"/>
		<path style="fill:#fcd34d;" d="M499.958,939.719c-0.094,0-0.169,0.076-0.169,0.169c0,0.094,0.076,0.169,0.169,0.169
			s0.169-0.076,0.169-0.169C500.127,939.795,500.051,939.719,499.958,939.719z"/>
		<path style="fill:#fcd34d;" d="M528.722,938.816c-0.085,0-0.154,0.069-0.154,0.154s0.069,0.154,0.154,0.154
			c0.085,0,0.154-0.069,0.154-0.154S528.807,938.816,528.722,938.816z"/>
		<path style="fill:#fcd34d;" d="M557.366,936.049c-0.078,0-0.141,0.063-0.141,0.141c0,0.078,0.063,0.141,0.141,0.141
			s0.141-0.063,0.141-0.141C557.506,936.112,557.443,936.049,557.366,936.049z"/>
		<path style="fill:#fcd34d;" d="M585.77,931.415c-0.071,0-0.128,0.057-0.128,0.128c0,0.071,0.057,0.128,0.128,0.128
			c0.071,0,0.128-0.057,0.128-0.128C585.898,931.472,585.841,931.415,585.77,931.415z"/>
		<circle style="fill:#fcd34d;" cx="613.806" cy="925.039" r="0.115"/>
		<path style="fill:#fcd34d;" d="M641.351,916.6c-0.056,0-0.102,0.046-0.102,0.102c0,0.056,0.046,0.102,0.102,0.102
			s0.102-0.046,0.102-0.102C641.453,916.645,641.407,916.6,641.351,916.6z"/>
		<path style="fill:#fcd34d;" d="M668.286,906.478c-0.049,0-0.089,0.04-0.089,0.089c0,0.049,0.04,0.089,0.089,0.089
			s0.089-0.04,0.089-0.089C668.375,906.518,668.335,906.478,668.286,906.478z"/>
		<path style="fill:#fcd34d;" d="M694.495,894.606c-0.042,0-0.077,0.034-0.077,0.077c0,0.042,0.034,0.076,0.077,0.076
			s0.076-0.034,0.076-0.076C694.571,894.641,694.537,894.606,694.495,894.606z"/>
		<circle style="fill:#fcd34d;" cx="719.865" cy="881.104" r="0.064"/>
		<path style="fill:#fcd34d;" d="M744.293,865.84c-0.028,0-0.051,0.023-0.051,0.051s0.023,0.051,0.051,0.051
			s0.051-0.023,0.051-0.051S744.321,865.84,744.293,865.84z"/>
		<path style="fill:#fcd34d;" d="M767.677,849.073c-0.023,0-0.042,0.019-0.042,0.042c0,0.023,0.019,0.042,0.042,0.042
			c0.023,0,0.042-0.019,0.042-0.042C767.719,849.092,767.7,849.073,767.677,849.073z"/>
		<path style="fill:#fcd34d;" d="M789.917,830.79c-0.035,0-0.063,0.028-0.063,0.063c0,0.035,0.028,0.063,0.063,0.063
			s0.063-0.028,0.063-0.063C789.98,830.819,789.952,830.79,789.917,830.79z"/>
		<path style="fill:#fcd34d;" d="M810.923,811.1c-0.046,0-0.083,0.037-0.083,0.083s0.037,0.083,0.083,0.083
			c0.046,0,0.083-0.037,0.083-0.083S810.969,811.1,810.923,811.1z"/>
		<path style="fill:#fcd34d;" d="M830.606,790.085c-0.057,0-0.104,0.046-0.104,0.103c0,0.057,0.046,0.103,0.104,0.103
			c0.057,0,0.103-0.046,0.103-0.103C830.709,790.131,830.663,790.085,830.606,790.085z"/>
		<path style="fill:#fcd34d;" d="M848.881,767.834c-0.068,0-0.124,0.055-0.124,0.124c0,0.068,0.055,0.124,0.124,0.124
			c0.068,0,0.124-0.055,0.124-0.124C849.005,767.89,848.95,767.834,848.881,767.834z"/>
		<path style="fill:#fcd34d;" d="M865.67,744.441c-0.08,0-0.144,0.065-0.144,0.144s0.065,0.144,0.144,0.144
			c0.08,0,0.144-0.065,0.144-0.144S865.749,744.441,865.67,744.441z"/>
		<circle style="fill:#fcd34d;" cx="880.896" cy="720.165" r="0.165"/>
		<circle style="fill:#fcd34d;" cx="894.491" cy="694.801" r="0.185"/>
		<path style="fill:#fcd34d;" d="M906.391,668.394c-0.113,0-0.205,0.092-0.205,0.205s0.092,0.205,0.205,0.205
			c0.113,0,0.205-0.092,0.205-0.205S906.505,668.394,906.391,668.394z"/>
		<path style="fill:#fcd34d;" d="M916.541,641.445c-0.125,0-0.226,0.101-0.226,0.226c0,0.125,0.101,0.226,0.226,0.226
			c0.125,0,0.226-0.101,0.226-0.226C916.767,641.546,916.666,641.445,916.541,641.445z"/>
		<circle style="fill:#fcd34d;" cx="924.894" cy="614.131" r="0.246"/>
		<path style="fill:#fcd34d;" d="M931.414,585.835c-0.147,0-0.266,0.119-0.266,0.266s0.119,0.266,0.266,0.266
			s0.266-0.119,0.266-0.266S931.561,585.835,931.414,585.835z"/>
		<path style="fill:#fcd34d;" d="M936.077,557.421c-0.158,0-0.287,0.128-0.287,0.287c0,0.158,0.128,0.287,0.287,0.287
			c0.158,0,0.287-0.128,0.287-0.287C936.363,557.55,936.235,557.421,936.077,557.421z"/>
		<path style="fill:#fcd34d;" d="M938.874,528.76c-0.17,0-0.307,0.138-0.307,0.307c0,0.17,0.137,0.307,0.307,0.307
			s0.307-0.137,0.307-0.307C939.181,528.898,939.044,528.76,938.874,528.76z"/>
	</g>
	<g>
		<path style="fill:#fcd34d;" d="M898.877,500.152"/>
		<path style="fill:#fcd34d;" d="M897.697,469.065c-0.098,0-0.178,0.08-0.178,0.178c0,0.098,0.08,0.178,0.178,0.178
			c0.098,0,0.178-0.08,0.178-0.178C897.875,469.145,897.795,469.065,897.697,469.065z"/>
		<path style="fill:#fcd34d;" d="M894.143,438.19c-0.181,0-0.327,0.147-0.327,0.327c0,0.181,0.147,0.327,0.327,0.327
			c0.181,0,0.327-0.147,0.327-0.327C894.471,438.336,894.324,438.19,894.143,438.19z"/>
		<path style="fill:#fcd34d;" d="M888.214,407.694c-0.255,0-0.463,0.207-0.463,0.462s0.207,0.462,0.463,0.462
			c0.255,0,0.462-0.207,0.462-0.462S888.469,407.694,888.214,407.694z"/>
		<path style="fill:#fcd34d;" d="M879.935,377.755c-0.33,0-0.597,0.268-0.597,0.598s0.267,0.597,0.597,0.597
			c0.33,0,0.598-0.267,0.598-0.597S880.265,377.755,879.935,377.755z"/>
		<path style="fill:#fcd34d;" d="M869.354,348.555c-0.405,0-0.733,0.328-0.733,0.733s0.328,0.733,0.733,0.733
			c0.405,0,0.733-0.328,0.733-0.733S869.759,348.555,869.354,348.555z"/>
		<circle style="fill:#fcd34d;" cx="856.539" cy="321.138" r="0.831"/>
		<circle style="fill:#fcd34d;" cx="841.574" cy="294.072" r="0.917"/>
		<circle style="fill:#fcd34d;" cx="824.555" cy="268.245" r="1.002"/>
		<circle style="fill:#fcd34d;" cx="805.591" cy="243.81" r="1.088"/>
		<path style="fill:#fcd34d;" d="M784.799,219.736c-0.649,0-1.174,0.526-1.174,1.174c0,0.649,0.526,1.174,1.174,1.174
			c0.648,0,1.174-0.526,1.174-1.174C785.973,220.262,785.448,219.736,784.799,219.736z"/>
		<path style="fill:#fcd34d;" d="M762.305,198.42c-0.696,0-1.26,0.564-1.26,1.26c0,0.696,0.564,1.26,1.26,1.26s1.26-0.564,1.26-1.26
			C763.566,198.984,763.001,198.42,762.305,198.42z"/>
		<path style="fill:#fcd34d;" d="M738.242,178.918c-0.734,0-1.329,0.595-1.329,1.329s0.595,1.329,1.329,1.329
			s1.329-0.595,1.329-1.329S738.976,178.918,738.242,178.918z"/>
		<circle style="fill:#fcd34d;" cx="712.751" cy="162.729" r="1.363"/>
		<path style="fill:#fcd34d;" d="M685.979,145.841c-0.772,0-1.397,0.626-1.397,1.397c0,0.772,0.626,1.397,1.397,1.397
			s1.397-0.626,1.397-1.397C687.377,146.467,686.751,145.841,685.979,145.841z"/>
		<path style="fill:#fcd34d;" d="M658.085,132.444c-0.791,0-1.432,0.641-1.432,1.432c0,0.791,0.641,1.432,1.432,1.432
			c0.791,0,1.432-0.641,1.432-1.432C659.516,133.085,658.875,132.444,658.085,132.444z"/>
		<circle style="fill:#fcd34d;" cx="629.233" cy="122.727" r="1.466"/>
		<path style="fill:#fcd34d;" d="M599.599,112.366c-0.828,0-1.5,0.672-1.5,1.5c0,0.829,0.672,1.5,1.5,1.5c0.829,0,1.5-0.672,1.5-1.5
			C601.099,113.038,600.428,112.366,599.599,112.366z"/>
		<circle style="fill:#fcd34d;" cx="569.364" cy="107.346" r="1.534"/>
		<circle style="fill:#fcd34d;" cx="538.716" cy="103.196" r="1.569"/>
		<path style="fill:#fcd34d;" d="M507.834,99.818c-0.885,0-1.603,0.718-1.603,1.603c0,0.885,0.718,1.603,1.603,1.603
			s1.603-0.718,1.603-1.603C509.437,100.536,508.72,99.818,507.834,99.818z"/>
		<path style="fill:#fcd34d;" d="M476.91,100.402c-0.888,0-1.607,0.719-1.607,1.607s0.719,1.607,1.607,1.607
			c0.888,0,1.607-0.719,1.607-1.607S477.797,100.402,476.91,100.402z"/>
		<path style="fill:#fcd34d;" d="M446.121,103.382c-0.875,0-1.583,0.709-1.583,1.584c0,0.875,0.709,1.584,1.583,1.584
			c0.875,0,1.583-0.709,1.583-1.584C447.704,104.091,446.995,103.382,446.121,103.382z"/>
		<path style="fill:#fcd34d;" d="M415.649,108.741c-0.862,0-1.56,0.698-1.56,1.56c0,0.862,0.698,1.56,1.56,1.56
			s1.56-0.698,1.56-1.56C417.209,109.439,416.511,108.741,415.649,108.741z"/>
		<path style="fill:#fcd34d;" d="M385.688,116.457c-0.849,0-1.536,0.688-1.536,1.536c0,0.849,0.688,1.536,1.536,1.536
			c0.849,0,1.536-0.688,1.536-1.536C387.225,117.145,386.537,116.457,385.688,116.457z"/>
		<circle style="fill:#fcd34d;" cx="356.421" cy="128.003" r="1.513"/>
		<path style="fill:#fcd34d;" d="M328.026,138.776c-0.823,0-1.489,0.667-1.489,1.49c0,0.823,0.667,1.489,1.489,1.489
			c0.823,0,1.489-0.667,1.489-1.489C329.515,139.442,328.848,138.776,328.026,138.776z"/>
		<path style="fill:#fcd34d;" d="M300.672,153.268c-0.791,0-1.432,0.641-1.432,1.432c0,0.791,0.641,1.432,1.432,1.432
			c0.791,0,1.432-0.641,1.432-1.432C302.104,153.908,301.463,153.268,300.672,153.268z"/>
		<path style="fill:#fcd34d;" d="M274.519,169.859c-0.748,0-1.354,0.606-1.354,1.354c0,0.748,0.606,1.354,1.354,1.354
			c0.748,0,1.354-0.606,1.354-1.354C275.874,170.465,275.267,169.859,274.519,169.859z"/>
		<path style="fill:#fcd34d;" d="M249.721,188.424c-0.705,0-1.277,0.572-1.277,1.277c0,0.705,0.572,1.277,1.277,1.277
			c0.705,0,1.277-0.572,1.277-1.277C250.998,188.995,250.427,188.424,249.721,188.424z"/>
		<path style="fill:#fcd34d;" d="M226.424,208.846c-0.662,0-1.199,0.537-1.199,1.199c0,0.662,0.537,1.199,1.199,1.199
			c0.662,0,1.199-0.537,1.199-1.199C227.623,209.383,227.086,208.846,226.424,208.846z"/>
		<circle style="fill:#fcd34d;" cx="204.762" cy="232.124" r="1.122"/>
		<path style="fill:#fcd34d;" d="M184.866,254.767c-0.574,0-1.039,0.465-1.039,1.039s0.465,1.039,1.039,1.039
			s1.039-0.465,1.039-1.039S185.44,254.767,184.866,254.767z"/>
		<path style="fill:#fcd34d;" d="M166.858,280c-0.526,0-0.953,0.426-0.953,0.953c0,0.526,0.426,0.953,0.953,0.953
			s0.953-0.426,0.953-0.953C167.81,280.427,167.384,280,166.858,280z"/>
		<circle style="fill:#fcd34d;" cx="150.849" cy="307.418" r="0.866"/>
		<path style="fill:#fcd34d;" d="M136.944,334.267c-0.43,0-0.779,0.349-0.779,0.779c0,0.43,0.349,0.779,0.779,0.779
			s0.779-0.349,0.779-0.779C137.723,334.616,137.374,334.267,136.944,334.267z"/>
		<path style="fill:#fcd34d;" d="M125.233,362.981c-0.382,0-0.693,0.31-0.693,0.693c0,0.382,0.31,0.693,0.693,0.693
			c0.382,0,0.693-0.31,0.693-0.693C125.925,363.291,125.615,362.981,125.233,362.981z"/>
		<circle style="fill:#fcd34d;" cx="115.792" cy="393.128" r="0.626"/>
		
			<ellipse transform="matrix(0.9994 -0.0333 0.0333 0.9994 -14.0237 3.851)" style="fill:#fcd34d;" cx="108.68" cy="423.23" rx="0.578" ry="0.578"/>
		<path style="fill:#fcd34d;" d="M103.934,453.259c-0.293,0-0.531,0.238-0.531,0.531c0,0.293,0.238,0.531,0.531,0.531
			c0.293,0,0.531-0.238,0.531-0.531C104.465,453.497,104.228,453.259,103.934,453.259z"/>
		<path style="fill:#fcd34d;" d="M101.565,484.145c-0.267,0-0.484,0.217-0.484,0.484s0.217,0.484,0.484,0.484
			c0.267,0,0.484-0.217,0.484-0.484S101.832,484.145,101.565,484.145z"/>
		<path style="fill:#fcd34d;" d="M101.561,515.126c-0.241,0-0.436,0.195-0.436,0.436s0.195,0.436,0.436,0.436
			c0.241,0,0.436-0.195,0.436-0.436S101.802,515.126,101.561,515.126z"/>
		<path style="fill:#fcd34d;" d="M103.922,546.014c-0.215,0-0.389,0.174-0.389,0.389s0.174,0.389,0.389,0.389
			c0.215,0,0.389-0.174,0.389-0.389S104.137,546.014,103.922,546.014z"/>
		<path style="fill:#fcd34d;" d="M108.66,576.588c-0.211,0-0.381,0.171-0.381,0.381s0.171,0.381,0.381,0.381
			c0.211,0,0.381-0.171,0.381-0.381S108.871,576.588,108.66,576.588z"/>
		<path style="fill:#fcd34d;" d="M115.764,606.677c-0.22,0-0.398,0.178-0.398,0.398c0,0.22,0.178,0.398,0.398,0.398
			c0.22,0,0.398-0.178,0.398-0.398C116.162,606.856,115.984,606.677,115.764,606.677z"/>
		<path style="fill:#fcd34d;" d="M125.198,636.119c-0.229,0-0.414,0.186-0.414,0.414c0,0.229,0.186,0.414,0.414,0.414
			c0.229,0,0.414-0.186,0.414-0.414C125.612,636.305,125.426,636.119,125.198,636.119z"/>
		<path style="fill:#fcd34d;" d="M136.901,664.715c-0.248,0-0.449,0.201-0.449,0.449c0,0.248,0.201,0.449,0.449,0.449
			s0.449-0.201,0.449-0.449C137.35,664.916,137.149,664.715,136.901,664.715z"/>
		<path style="fill:#fcd34d;" d="M150.799,692.271c-0.289,0-0.523,0.234-0.523,0.523s0.234,0.523,0.523,0.523
			s0.524-0.234,0.524-0.523S151.088,692.271,150.799,692.271z"/>
		<path style="fill:#fcd34d;" d="M166.801,718.666c-0.33,0-0.598,0.268-0.598,0.598s0.268,0.598,0.598,0.598
			c0.33,0,0.598-0.268,0.598-0.598S167.131,718.666,166.801,718.666z"/>
		<path style="fill:#fcd34d;" d="M184.803,743.742c-0.372,0-0.674,0.302-0.674,0.674s0.302,0.674,0.674,0.674
			s0.674-0.302,0.674-0.674S185.176,743.742,184.803,743.742z"/>
		<circle style="fill:#fcd34d;" cx="204.693" cy="768.103" r="0.752"/>
		<path style="fill:#fcd34d;" d="M226.349,789.358c-0.458,0-0.83,0.372-0.83,0.83c0,0.458,0.372,0.83,0.83,0.83
			s0.83-0.372,0.83-0.83C227.179,789.729,226.807,789.358,226.349,789.358z"/>
		<path style="fill:#fcd34d;" d="M249.642,809.663c-0.484,0-0.876,0.392-0.876,0.876s0.392,0.876,0.876,0.876
			c0.484,0,0.876-0.392,0.876-0.876S250.125,809.663,249.642,809.663z"/>
		<path style="fill:#fcd34d;" d="M274.434,828.13c-0.498,0-0.901,0.404-0.901,0.901s0.403,0.901,0.901,0.901
			c0.498,0,0.901-0.403,0.901-0.901S274.932,828.13,274.434,828.13z"/>
		<path style="fill:#fcd34d;" d="M300.583,844.625c-0.512,0-0.927,0.415-0.927,0.927c0,0.512,0.415,0.927,0.927,0.927
			c0.512,0,0.927-0.415,0.927-0.927C301.51,845.04,301.095,844.625,300.583,844.625z"/>
		<circle style="fill:#fcd34d;" cx="327.934" cy="859.994" r="0.932"/>
		<circle style="fill:#fcd34d;" cx="356.327" cy="872.264" r="0.893"/>
		<circle style="fill:#fcd34d;" cx="385.59" cy="882.28" r="0.853"/>
		<path style="fill:#fcd34d;" d="M415.547,889.167c-0.449,0-0.814,0.364-0.814,0.813s0.364,0.814,0.814,0.814
			c0.449,0,0.814-0.364,0.814-0.814S415.996,889.167,415.547,889.167z"/>
		<circle style="fill:#fcd34d;" cx="446.013" cy="895.323" r="0.754"/>
		<circle style="fill:#fcd34d;" cx="476.8" cy="898.288" r="0.668"/>
		<path style="fill:#fcd34d;" d="M507.725,898.301c-0.322,0-0.582,0.261-0.582,0.583c0,0.322,0.261,0.582,0.582,0.582
			c0.322,0,0.582-0.261,0.582-0.582C508.307,898.562,508.047,898.301,507.725,898.301z"/>
		<path style="fill:#fcd34d;" d="M538.605,896.621c-0.275,0-0.498,0.223-0.498,0.497s0.223,0.497,0.498,0.497
			s0.497-0.223,0.497-0.497S538.88,896.621,538.605,896.621z"/>
		<circle style="fill:#fcd34d;" cx="569.258" cy="892.976" r="0.417"/>
		<circle style="fill:#fcd34d;" cx="599.498" cy="886.463" r="0.336"/>
		<path style="fill:#fcd34d;" d="M629.135,877.353c-0.141,0-0.256,0.115-0.256,0.256s0.114,0.256,0.256,0.256
			s0.256-0.114,0.256-0.256S629.277,877.353,629.135,877.353z"/>
		<path style="fill:#fcd34d;" d="M657.99,866.251c-0.12,0-0.218,0.097-0.218,0.218c0,0.12,0.097,0.218,0.218,0.218
			s0.218-0.097,0.218-0.218C658.208,866.348,658.11,866.251,657.99,866.251z"/>
		<circle style="fill:#fcd34d;" cx="685.888" cy="853.113" r="0.191"/>
		<circle style="fill:#fcd34d;" cx="712.66" cy="837.632" r="0.164"/>
		<path style="fill:#fcd34d;" d="M738.157,819.984c-0.076,0-0.137,0.061-0.137,0.137c0,0.076,0.061,0.137,0.137,0.137
			s0.137-0.061,0.137-0.137C738.294,820.045,738.232,819.984,738.157,819.984z"/>
		<path style="fill:#fcd34d;" d="M762.225,800.519c-0.096,0-0.174,0.078-0.174,0.174c0,0.096,0.078,0.174,0.174,0.174
			c0.096,0,0.174-0.078,0.174-0.174C762.399,800.597,762.321,800.519,762.225,800.519z"/>
		<path style="fill:#fcd34d;" d="M784.724,779.252c-0.12,0-0.217,0.097-0.217,0.217c0,0.12,0.097,0.217,0.217,0.217
			c0.12,0,0.217-0.097,0.217-0.217C784.941,779.349,784.844,779.252,784.724,779.252z"/>
		<path style="fill:#fcd34d;" d="M805.522,756.315c-0.144,0-0.26,0.116-0.26,0.26s0.116,0.26,0.26,0.26
			c0.144,0,0.26-0.116,0.26-0.26S805.665,756.315,805.522,756.315z"/>
		<circle style="fill:#fcd34d;" cx="824.492" cy="732.146" r="0.305"/>
		<path style="fill:#fcd34d;" d="M841.518,705.932c-0.216,0-0.391,0.175-0.391,0.391c0,0.216,0.175,0.391,0.391,0.391
			s0.391-0.175,0.391-0.391C841.91,706.107,841.734,705.932,841.518,705.932z"/>
		<path style="fill:#fcd34d;" d="M856.492,678.781c-0.264,0-0.478,0.214-0.478,0.478c0,0.264,0.214,0.478,0.478,0.478
			s0.478-0.214,0.478-0.478C856.969,678.995,856.755,678.781,856.492,678.781z"/>
		<path style="fill:#fcd34d;" d="M869.315,650.548c-0.312,0-0.564,0.253-0.564,0.564c0,0.312,0.253,0.564,0.564,0.564
			c0.312,0,0.564-0.253,0.564-0.564C869.879,650.8,869.626,650.548,869.315,650.548z"/>
		<circle style="fill:#fcd34d;" cx="879.903" cy="622.051" r="0.655"/>
		<circle style="fill:#fcd34d;" cx="888.19" cy="592.251" r="0.77"/>
		<path style="fill:#fcd34d;" d="M894.126,561.011c-0.488,0-0.884,0.396-0.884,0.884s0.396,0.884,0.884,0.884
			c0.488,0,0.884-0.396,0.884-0.884S894.615,561.011,894.126,561.011z"/>
		<path style="fill:#fcd34d;" d="M897.688,530.173c-0.552,0-0.999,0.447-0.999,0.999c0,0.552,0.447,0.999,0.999,0.999
			c0.552,0,0.999-0.447,0.999-0.999C898.687,530.621,898.24,530.173,897.688,530.173z"/>
	</g>
	<g>
		<path style="fill:#fcd34d;" d="M857.944,500.152"/>
		<path style="fill:#fcd34d;" d="M856.484,467.246c-0.197,0-0.357,0.16-0.357,0.357s0.16,0.357,0.357,0.357
			c0.197,0,0.357-0.16,0.357-0.357S856.681,467.246,856.484,467.246z"/>
		<path style="fill:#fcd34d;" d="M852.087,434.682c-0.353,0-0.639,0.286-0.639,0.639s0.286,0.639,0.639,0.639
			c0.353,0,0.639-0.286,0.639-0.639S852.44,434.682,852.087,434.682z"/>
		<circle style="fill:#fcd34d;" cx="844.76" cy="403.571" r="0.909"/>
		<circle style="fill:#fcd34d;" cx="834.556" cy="372.628" r="1.18"/>
		<path style="fill:#fcd34d;" d="M821.561,341.339c-0.78,0-1.413,0.632-1.413,1.413c0,0.78,0.633,1.413,1.413,1.413
			c0.78,0,1.413-0.633,1.413-1.413C822.974,341.971,822.342,341.339,821.561,341.339z"/>
		<path style="fill:#fcd34d;" d="M805.895,312.576c-0.891,0-1.613,0.722-1.613,1.613s0.722,1.613,1.613,1.613
			c0.891,0,1.613-0.722,1.613-1.613S806.785,312.576,805.895,312.576z"/>
		<circle style="fill:#fcd34d;" cx="787.693" cy="287.166" r="1.81"/>
		<path style="fill:#fcd34d;" d="M767.118,259.946c-1.082,0-1.959,0.877-1.959,1.959c0,1.082,0.877,1.959,1.959,1.959
			c1.082,0,1.959-0.877,1.959-1.959C769.077,260.823,768.2,259.946,767.118,259.946z"/>
		<path style="fill:#fcd34d;" d="M744.342,236.5c-1.164,0-2.108,0.944-2.108,2.108c0,1.164,0.944,2.108,2.108,2.108
			c1.164,0,2.108-0.944,2.108-2.108C746.45,237.443,745.506,236.5,744.342,236.5z"/>
		<path style="fill:#fcd34d;" d="M719.554,215.211c-1.244,0-2.253,1.009-2.253,2.253c0,1.244,1.009,2.253,2.253,2.253
			s2.253-1.009,2.253-2.253C721.807,216.22,720.798,215.211,719.554,215.211z"/>
		<path style="fill:#fcd34d;" d="M692.953,196.303c-1.298,0-2.35,1.052-2.35,2.35c0,1.298,1.052,2.35,2.35,2.35
			c1.298,0,2.35-1.052,2.35-2.35C695.303,197.355,694.251,196.303,692.953,196.303z"/>
		<path style="fill:#fcd34d;" d="M664.752,179.89c-1.352,0-2.447,1.096-2.447,2.447c0,1.352,1.096,2.447,2.447,2.447
			c1.351,0,2.447-1.096,2.447-2.447C667.199,180.986,666.104,179.89,664.752,179.89z"/>
		<circle style="fill:#fcd34d;" cx="635.181" cy="168.662" r="2.544"/>
		<path style="fill:#fcd34d;" d="M604.482,155.139c-1.442,0-2.611,1.169-2.611,2.611c0,1.442,1.169,2.611,2.611,2.611
			c1.442,0,2.611-1.169,2.611-2.611C607.093,156.308,605.924,155.139,604.482,155.139z"/>
		<circle style="fill:#fcd34d;" cx="572.912" cy="149.698" r="2.655"/>
		<circle style="fill:#fcd34d;" cx="540.742" cy="144.565" r="2.699"/>
		<circle style="fill:#fcd34d;" cx="508.237" cy="142.371" r="2.743"/>
		
			<ellipse transform="matrix(0.3827 -0.9239 0.9239 0.3827 161.4299 527.795)" style="fill:#fcd34d;" cx="475.665" cy="143.099" rx="2.754" ry="2.754"/>
		<circle style="fill:#fcd34d;" cx="443.29" cy="146.76" r="2.738"/>
		<path style="fill:#fcd34d;" d="M411.38,150.634c-1.503,0-2.722,1.219-2.722,2.722c0,1.503,1.219,2.722,2.722,2.722
			s2.722-1.219,2.722-2.722C414.102,151.853,412.883,150.634,411.38,150.634z"/>
		<path style="fill:#fcd34d;" d="M380.211,160.2c-1.461,0-2.645,1.184-2.645,2.645c0,1.461,1.184,2.645,2.645,2.645
			c1.461,0,2.645-1.184,2.645-2.645C382.856,161.385,381.672,160.2,380.211,160.2z"/>
		<path style="fill:#fcd34d;" d="M350.043,172.588c-1.416,0-2.564,1.148-2.564,2.564c0,1.416,1.148,2.564,2.564,2.564
			s2.564-1.148,2.564-2.564C352.607,173.736,351.459,172.588,350.043,172.588z"/>
		<path style="fill:#fcd34d;" d="M321.129,187.719c-1.349,0-2.442,1.093-2.442,2.442c0,1.349,1.093,2.442,2.442,2.442
			s2.442-1.093,2.442-2.442C323.571,188.812,322.478,187.719,321.129,187.719z"/>
		<path style="fill:#fcd34d;" d="M293.699,205.455c-1.263,0-2.287,1.024-2.287,2.287c0,1.263,1.024,2.287,2.287,2.287
			c1.263,0,2.287-1.024,2.287-2.287C295.986,206.479,294.962,205.455,293.699,205.455z"/>
		
			<ellipse transform="matrix(0.9871 -0.1602 0.1602 0.9871 -33.0194 45.8656)" style="fill:#fcd34d;" cx="267.977" cy="227.739" rx="2.132" ry="2.132"/>
		<circle style="fill:#fcd34d;" cx="244.169" cy="249.981" r="1.977"/>
		<path style="fill:#fcd34d;" d="M222.469,272.465c-1.004,0-1.818,0.814-1.818,1.818s0.814,1.818,1.818,1.818
			s1.818-0.814,1.818-1.818S223.473,272.465,222.469,272.465z"/>
		
			<ellipse transform="matrix(0.0985 -0.9951 0.9951 0.0985 -115.9383 472.9144)" style="fill:#fcd34d;" cx="203.058" cy="300.45" rx="1.644" ry="1.644"/>
		
			<ellipse transform="matrix(0.9871 -0.1602 0.1602 0.9871 -50.18 34.0491)" style="fill:#fcd34d;" cx="186.103" cy="328.271" rx="1.471" ry="1.471"/>
		<circle style="fill:#fcd34d;" cx="171.753" cy="357.521" r="1.297"/>
		<circle style="fill:#fcd34d;" cx="160.139" cy="387.961" r="1.124"/>
		<path style="fill:#fcd34d;" d="M151.364,418.342c-0.55,0-0.995,0.446-0.995,0.995c0,0.55,0.446,0.995,0.995,0.995
			s0.995-0.446,0.995-0.995C152.359,418.787,151.913,418.342,151.364,418.342z"/>
		
			<ellipse transform="matrix(0.0553 -0.9985 0.9985 0.0553 -313.2445 571.6968)" style="fill:#fcd34d;" cx="145.496" cy="451.385" rx="0.872" ry="0.872"/>
		<path style="fill:#fcd34d;" d="M142.566,483.054c-0.429,0-0.778,0.348-0.778,0.778c0,0.429,0.348,0.778,0.778,0.778
			c0.429,0,0.778-0.348,0.778-0.778C143.344,483.402,142.996,483.054,142.566,483.054z"/>
		<path style="fill:#fcd34d;" d="M142.564,515.708c-0.391,0-0.709,0.317-0.709,0.709s0.317,0.709,0.709,0.709
			c0.391,0,0.709-0.317,0.709-0.709S142.955,515.708,142.564,515.708z"/>
		<path style="fill:#fcd34d;" d="M145.489,548.226c-0.353,0-0.64,0.286-0.64,0.64s0.287,0.64,0.64,0.64
			c0.353,0,0.64-0.286,0.64-0.64S145.842,548.226,145.489,548.226z"/>
		<path style="fill:#fcd34d;" d="M151.352,580.284c-0.349,0-0.632,0.283-0.632,0.632c0,0.349,0.283,0.632,0.632,0.632
			c0.349,0,0.632-0.283,0.632-0.632C151.983,580.567,151.701,580.284,151.352,580.284z"/>
		<path style="fill:#fcd34d;" d="M160.124,611.635c-0.365,0-0.66,0.296-0.66,0.66c0,0.365,0.296,0.66,0.66,0.66
			c0.365,0,0.66-0.296,0.66-0.66C160.784,611.93,160.488,611.635,160.124,611.635z"/>
		<circle style="fill:#fcd34d;" cx="171.734" cy="642.737" r="0.738"/>
		<circle style="fill:#fcd34d;" cx="186.078" cy="671.988" r="0.888"/>
		<circle style="fill:#fcd34d;" cx="203.03" cy="699.812" r="1.037"/>
		<path style="fill:#fcd34d;" d="M222.438,724.791c-0.657,0-1.19,0.533-1.19,1.19s0.533,1.19,1.19,1.19s1.19-0.533,1.19-1.19
			S223.095,724.791,222.438,724.791z"/>
		<circle style="fill:#fcd34d;" cx="244.134" cy="750.287" r="1.346"/>
		
			<ellipse transform="matrix(0.1222 -0.9925 0.9925 0.1222 -531.5424 944.0733)" style="fill:#fcd34d;" cx="267.939" cy="772.532" rx="1.487" ry="1.487"/>
		<circle style="fill:#fcd34d;" cx="293.658" cy="792.532" r="1.575"/>
		<circle style="fill:#fcd34d;" cx="321.085" cy="810.117" r="1.6"/>
		<path style="fill:#fcd34d;" d="M349.999,823.541c-0.879,0-1.591,0.712-1.591,1.591s0.712,1.591,1.591,1.591
			c0.879,0,1.591-0.712,1.591-1.591S350.878,823.541,349.999,823.541z"/>
		<circle style="fill:#fcd34d;" cx="380.165" cy="837.441" r="1.541"/>
		<circle style="fill:#fcd34d;" cx="411.331" cy="846.935" r="1.449"/>
		<path style="fill:#fcd34d;" d="M443.237,852.205c-0.734,0-1.33,0.595-1.33,1.33s0.595,1.33,1.33,1.33
			c0.734,0,1.33-0.595,1.33-1.33S443.971,852.205,443.237,852.205z"/>
		<path style="fill:#fcd34d;" d="M475.609,856.042c-0.64,0-1.159,0.519-1.159,1.159c0,0.64,0.519,1.159,1.159,1.159
			c0.64,0,1.159-0.519,1.159-1.159C476.767,856.56,476.249,856.042,475.609,856.042z"/>
		<circle style="fill:#fcd34d;" cx="508.181" cy="857.933" r="0.987"/>
		<path style="fill:#fcd34d;" d="M540.689,854.925c-0.452,0-0.819,0.367-0.819,0.819s0.367,0.819,0.819,0.819
			c0.452,0,0.819-0.367,0.819-0.819S541.141,854.925,540.689,854.925z"/>
		<circle style="fill:#fcd34d;" cx="572.864" cy="850.615" r="0.657"/>
		<path style="fill:#fcd34d;" d="M604.437,842.071c-0.274,0-0.496,0.222-0.496,0.496s0.222,0.496,0.496,0.496
			s0.496-0.222,0.496-0.496S604.711,842.071,604.437,842.071z"/>
		<path style="fill:#fcd34d;" d="M635.138,831.292c-0.203,0-0.367,0.164-0.367,0.367c0,0.203,0.164,0.367,0.367,0.367
			c0.203,0,0.367-0.164,0.367-0.367C635.505,831.456,635.341,831.292,635.138,831.292z"/>
		<circle style="fill:#fcd34d;" cx="664.711" cy="817.987" r="0.278"/>
		<path style="fill:#fcd34d;" d="M692.91,801.429c-0.137,0-0.249,0.111-0.249,0.249s0.111,0.249,0.249,0.249
			s0.249-0.111,0.249-0.249S693.047,801.429,692.91,801.429z"/>
		<path style="fill:#fcd34d;" d="M719.514,782.631c-0.132,0-0.239,0.107-0.239,0.239c0,0.132,0.107,0.239,0.239,0.239
			c0.132,0,0.239-0.107,0.239-0.239C719.753,782.738,719.646,782.631,719.514,782.631z"/>
		<path style="fill:#fcd34d;" d="M744.306,761.438c-0.162,0-0.293,0.131-0.293,0.293c0,0.162,0.131,0.293,0.293,0.293
			c0.162,0,0.293-0.131,0.293-0.293C744.598,761.569,744.467,761.438,744.306,761.438z"/>
		<circle style="fill:#fcd34d;" cx="767.084" cy="738.436" r="0.381"/>
		<circle style="fill:#fcd34d;" cx="787.663" cy="713.178" r="0.496"/>
		<path style="fill:#fcd34d;" d="M805.868,685.497c-0.365,0-0.661,0.296-0.661,0.661s0.296,0.661,0.661,0.661
			s0.661-0.296,0.661-0.661S806.233,685.497,805.868,685.497z"/>
		<path style="fill:#fcd34d;" d="M821.54,656.761c-0.461,0-0.834,0.373-0.834,0.834c0,0.461,0.373,0.834,0.834,0.834
			c0.461,0,0.834-0.373,0.834-0.834C822.375,657.134,822.001,656.761,821.54,656.761z"/>
		<circle style="fill:#fcd34d;" cx="834.539" cy="627.72" r="1.007"/>
		<circle style="fill:#fcd34d;" cx="844.747" cy="596.78" r="1.211"/>
		<circle style="fill:#fcd34d;" cx="852.077" cy="565.034" r="1.441"/>
		<path style="fill:#fcd34d;" d="M856.479,531.085c-0.922,0-1.67,0.748-1.67,1.67c0,0.922,0.748,1.67,1.67,1.67
			s1.67-0.748,1.67-1.67C858.149,531.833,857.401,531.085,856.479,531.085z"/>
	</g>
	<g>
		<path style="fill:#fcd34d;" d="M817.012,500.152"/>
		<path style="fill:#fcd34d;" d="M815.18,465.282c-0.329,0-0.595,0.267-0.595,0.595c0,0.329,0.267,0.595,0.595,0.595
			c0.329,0,0.595-0.267,0.595-0.595C815.776,465.548,815.509,465.282,815.18,465.282z"/>
		<path style="fill:#fcd34d;" d="M809.667,430.902c-0.606,0-1.098,0.492-1.098,1.098s0.492,1.098,1.098,1.098
			c0.607,0,1.098-0.492,1.098-1.098S810.273,430.902,809.667,430.902z"/>
		<path style="fill:#fcd34d;" d="M800.501,397.392c-0.844,0-1.529,0.685-1.529,1.529c0,0.844,0.685,1.529,1.529,1.529
			c0.844,0,1.529-0.685,1.529-1.529C802.03,398.076,801.346,397.392,800.501,397.392z"/>
		<path style="fill:#fcd34d;" d="M787.788,365.112c-1.065,0-1.929,0.864-1.929,1.929c0,1.065,0.864,1.929,1.929,1.929
			c1.065,0,1.929-0.864,1.929-1.929C789.717,365.975,788.854,365.112,787.788,365.112z"/>
		<path style="fill:#fcd34d;" d="M771.688,334.467c-1.251,0-2.265,1.014-2.265,2.265c0,1.251,1.014,2.265,2.265,2.265
			c1.251,0,2.265-1.014,2.265-2.265C773.953,335.481,772.939,334.467,771.688,334.467z"/>
		<circle style="fill:#fcd34d;" cx="752.401" cy="308.341" r="2.588"/>
		<circle style="fill:#fcd34d;" cx="730.169" cy="282.191" r="2.838"/>
		<path style="fill:#fcd34d;" d="M705.254,255.495c-1.706,0-3.089,1.383-3.089,3.089c0,1.706,1.383,3.089,3.089,3.089
			s3.089-1.383,3.089-3.089C708.343,256.878,706.96,255.495,705.254,255.495z"/>
		<circle style="fill:#fcd34d;" cx="677.945" cy="237.794" r="3.282"/>
		<circle style="fill:#fcd34d;" cx="648.551" cy="220.072" r="3.446"/>
		<path style="fill:#fcd34d;" d="M617.41,202.033c-1.993,0-3.609,1.616-3.609,3.609c0,1.993,1.616,3.609,3.609,3.609
			s3.609-1.616,3.609-3.609C621.018,203.649,619.403,202.033,617.41,202.033z"/>
		<path style="fill:#fcd34d;" d="M584.883,190.978c-2.048,0-3.709,1.66-3.709,3.709c0,2.048,1.661,3.709,3.709,3.709
			s3.709-1.66,3.709-3.709C588.591,192.639,586.931,190.978,584.883,190.978z"/>
		<path style="fill:#fcd34d;" d="M551.355,183.557c-2.089,0-3.783,1.694-3.783,3.783c0,2.089,1.694,3.783,3.783,3.783
			s3.783-1.694,3.783-3.783C555.138,185.251,553.444,183.557,551.355,183.557z"/>
		<path style="fill:#fcd34d;" d="M517.233,179.813c-2.13,0-3.857,1.727-3.857,3.857c0,2.13,1.727,3.857,3.857,3.857
			c2.13,0,3.857-1.727,3.857-3.857C521.089,181.539,519.363,179.813,517.233,179.813z"/>
		<circle style="fill:#fcd34d;" cx="482.909" cy="183.669" r="3.896"/>
		
			<ellipse transform="matrix(0.9871 -0.1602 0.1602 0.9871 -24.2138 74.3063)" style="fill:#fcd34d;" cx="448.783" cy="187.341" rx="3.87" ry="3.87"/>
		<circle style="fill:#fcd34d;" cx="415.252" cy="194.69" r="3.83"/>
		
			<ellipse transform="matrix(0.3827 -0.9239 0.9239 0.3827 46.2689 480.5396)" style="fill:#fcd34d;" cx="382.723" cy="205.647" rx="3.692" ry="3.692"/>
		
			<ellipse transform="matrix(0.3827 -0.9239 0.9239 0.3827 13.7127 460.678)" style="fill:#fcd34d;" cx="351.583" cy="220.078" rx="3.543" ry="3.543"/>
		
			<ellipse transform="matrix(0.9871 -0.1602 0.1602 0.9871 -33.9312 54.6798)" style="fill:#fcd34d;" cx="322.19" cy="237.801" rx="3.312" ry="3.312"/>
		<path style="fill:#fcd34d;" d="M294.881,255.528c-1.692,0-3.065,1.372-3.065,3.065c0,1.692,1.372,3.065,3.065,3.065
			c1.693,0,3.065-1.372,3.065-3.065C297.946,256.9,296.574,255.528,294.881,255.528z"/>
		<circle style="fill:#fcd34d;" cx="269.967" cy="282.201" r="2.773"/>
		<path style="fill:#fcd34d;" d="M247.736,305.87c-1.37,0-2.481,1.111-2.481,2.481c0,1.37,1.111,2.481,2.481,2.481
			s2.481-1.111,2.481-2.481C250.217,306.98,249.106,305.87,247.736,305.87z"/>
		<circle style="fill:#fcd34d;" cx="228.451" cy="336.743" r="2.189"/>
		<circle style="fill:#fcd34d;" cx="212.351" cy="367.055" r="1.897"/>
		<path style="fill:#fcd34d;" d="M199.639,397.331c-0.887,0-1.605,0.719-1.605,1.605c0,0.887,0.719,1.605,1.605,1.605
			c0.887,0,1.605-0.719,1.605-1.605C201.244,398.05,200.525,397.331,199.639,397.331z"/>
		<path style="fill:#fcd34d;" d="M190.476,430.627c-0.766,0-1.386,0.621-1.386,1.386s0.621,1.386,1.386,1.386
			c0.766,0,1.386-0.621,1.386-1.386S191.241,430.627,190.476,430.627z"/>
		<path style="fill:#fcd34d;" d="M184.964,464.709c-0.651,0-1.178,0.527-1.178,1.178c0,0.651,0.527,1.178,1.178,1.178
			c0.651,0,1.178-0.527,1.178-1.178C186.142,465.236,185.615,464.709,184.964,464.709z"/>
		<circle style="fill:#fcd34d;" cx="183.133" cy="500.162" r="1.051"/>
		<circle style="fill:#fcd34d;" cx="184.966" cy="534.437" r="0.935"/>
		<circle style="fill:#fcd34d;" cx="190.481" cy="568.314" r="0.893"/>
		<path style="fill:#fcd34d;" d="M199.647,600.452c-0.52,0-0.941,0.421-0.941,0.941c0,0.52,0.421,0.941,0.941,0.941
			c0.52,0,0.941-0.421,0.941-0.941C200.588,600.873,200.167,600.452,199.647,600.452z"/>
		<path style="fill:#fcd34d;" d="M212.361,632.173c-0.607,0-1.099,0.492-1.099,1.099s0.492,1.099,1.099,1.099
			c0.607,0,1.099-0.492,1.099-1.099S212.968,632.173,212.361,632.173z"/>
		<path style="fill:#fcd34d;" d="M228.463,662.23c-0.745,0-1.349,0.604-1.349,1.349c0,0.745,0.604,1.349,1.349,1.349
			c0.745,0,1.349-0.604,1.349-1.349C229.812,662.834,229.208,662.23,228.463,662.23z"/>
		<path style="fill:#fcd34d;" d="M247.75,690.368c-0.885,0-1.603,0.718-1.603,1.603c0,0.885,0.718,1.603,1.603,1.603
			s1.603-0.718,1.603-1.603C249.353,691.086,248.635,690.368,247.75,690.368z"/>
		<path style="fill:#fcd34d;" d="M269.984,716.254c-1.03,0-1.865,0.835-1.865,1.865c0,1.03,0.835,1.865,1.865,1.865
			c1.03,0,1.865-0.835,1.865-1.865C271.849,717.089,271.014,716.254,269.984,716.254z"/>
		<circle style="fill:#fcd34d;" cx="294.899" cy="741.726" r="2.104"/>
		<circle style="fill:#fcd34d;" cx="322.209" cy="762.516" r="2.242"/>
		
			<ellipse transform="matrix(0.9571 -0.2898 0.2898 0.9571 -211.013 135.367)" style="fill:#fcd34d;" cx="351.603" cy="780.236" rx="2.273" ry="2.273"/>
		<circle style="fill:#fcd34d;" cx="382.745" cy="794.665" r="2.207"/>
		<path style="fill:#fcd34d;" d="M415.273,803.535c-1.151,0-2.084,0.933-2.084,2.084c0,1.151,0.933,2.084,2.084,2.084
			c1.151,0,2.084-0.933,2.084-2.084C417.356,804.468,416.424,803.535,415.273,803.535z"/>
		<path style="fill:#fcd34d;" d="M448.8,811.076c-1.043,0-1.889,0.846-1.889,1.889s0.846,1.889,1.889,1.889
			c1.043,0,1.889-0.846,1.889-1.889S449.843,811.076,448.8,811.076z"/>
		<circle style="fill:#fcd34d;" cx="482.923" cy="816.635" r="1.6"/>
		<circle style="fill:#fcd34d;" cx="517.246" cy="816.633" r="1.312"/>
		<path style="fill:#fcd34d;" d="M551.372,811.925c-0.572,0-1.036,0.464-1.036,1.036s0.464,1.036,1.036,1.036
			s1.036-0.464,1.036-1.036S551.944,811.925,551.372,811.925z"/>
		<circle style="fill:#fcd34d;" cx="584.904" cy="805.61" r="0.764"/>
		<circle style="fill:#fcd34d;" cx="617.432" cy="794.653" r="0.53"/>
		<path style="fill:#fcd34d;" d="M648.571,779.841c-0.21,0-0.38,0.17-0.38,0.38s0.17,0.38,0.38,0.38s0.38-0.17,0.38-0.38
			S648.781,779.841,648.571,779.841z"/>
		<path style="fill:#fcd34d;" d="M677.964,762.154c-0.189,0-0.342,0.153-0.342,0.342s0.153,0.342,0.342,0.342
			s0.342-0.153,0.342-0.342S678.153,762.154,677.964,762.154z"/>
		<circle style="fill:#fcd34d;" cx="705.272" cy="741.704" r="0.374"/>
		<path style="fill:#fcd34d;" d="M730.185,717.61c-0.268,0-0.485,0.217-0.485,0.485s0.217,0.485,0.485,0.485
			s0.485-0.217,0.485-0.485S730.453,717.61,730.185,717.61z"/>
		<path style="fill:#fcd34d;" d="M752.415,691.265c-0.375,0-0.679,0.304-0.679,0.679c0,0.375,0.304,0.679,0.679,0.679
			s0.679-0.304,0.679-0.679C753.095,691.569,752.791,691.265,752.415,691.265z"/>
		<circle style="fill:#fcd34d;" cx="771.699" cy="663.551" r="0.947"/>
		<circle style="fill:#fcd34d;" cx="787.799" cy="633.239" r="1.238"/>
		<path style="fill:#fcd34d;" d="M800.51,599.828c-0.845,0-1.529,0.685-1.529,1.529s0.685,1.529,1.529,1.529
			c0.845,0,1.529-0.685,1.529-1.529S801.355,599.828,800.51,599.828z"/>
		<path style="fill:#fcd34d;" d="M809.672,566.379c-1.05,0-1.9,0.851-1.9,1.9s0.851,1.9,1.9,1.9s1.9-0.851,1.9-1.9
			S810.721,566.379,809.672,566.379z"/>
		<circle style="fill:#fcd34d;" cx="815.182" cy="534.406" r="2.272"/>
	</g>
	<g>
		<path style="fill:#fcd34d;" d="M776.079,500.152"/>
		<circle style="fill:#fcd34d;" cx="773.749" cy="464.12" r="0.905"/>
		<path style="fill:#fcd34d;" d="M766.741,427.041c-0.916,0-1.659,0.743-1.659,1.659s0.743,1.659,1.659,1.659
			c0.916,0,1.659-0.743,1.659-1.659S767.658,427.041,766.741,427.041z"/>
		<path style="fill:#fcd34d;" d="M755.139,392.191c-1.279,0-2.316,1.037-2.316,2.316c0,1.279,1.037,2.316,2.316,2.316
			s2.316-1.037,2.316-2.316C757.455,393.228,756.418,392.191,755.139,392.191z"/>
		<path style="fill:#fcd34d;" d="M739.149,359.282c-1.577,0-2.856,1.279-2.856,2.856c0,1.577,1.279,2.856,2.856,2.856
			c1.577,0,2.856-1.279,2.856-2.856C742.005,360.561,740.726,359.282,739.149,359.282z"/>
		<path style="fill:#fcd34d;" d="M719.064,328.775c-1.855,0-3.358,1.504-3.358,3.358s1.504,3.358,3.358,3.358
			s3.358-1.504,3.358-3.358S720.919,328.775,719.064,328.775z"/>
		<path style="fill:#fcd34d;" d="M695.248,301.245c-2.071,0-3.75,1.679-3.75,3.75c0,2.071,1.679,3.75,3.75,3.75
			c2.071,0,3.75-1.679,3.75-3.75C698.998,302.924,697.32,301.245,695.248,301.245z"/>
		<circle style="fill:#fcd34d;" cx="668.113" cy="281.177" r="4.129"/>
		<circle style="fill:#fcd34d;" cx="638.11" cy="261.09" r="4.384"/>
		<circle style="fill:#fcd34d;" cx="605.741" cy="245.095" r="4.638"/>
		
			<ellipse transform="matrix(0.9871 -0.1602 0.1602 0.9871 -30.0208 94.5675)" style="fill:#fcd34d;" cx="571.551" cy="233.49" rx="4.802" ry="4.802"/>
		
			<ellipse transform="matrix(0.9871 -0.1602 0.1602 0.9871 -29.355 88.803)" style="fill:#fcd34d;" cx="536.132" cy="226.479" rx="4.918" ry="4.918"/>
		
			<ellipse transform="matrix(0.3827 -0.9239 0.9239 0.3827 101.6377 600.4013)" style="fill:#fcd34d;" cx="500.101" cy="224.145" rx="5.033" ry="5.033"/>
		<circle style="fill:#fcd34d;" cx="464.069" cy="226.472" r="5.05"/>
		<circle style="fill:#fcd34d;" cx="428.648" cy="233.476" r="4.966"/>
		
			<ellipse transform="matrix(0.9951 -0.0985 0.0985 0.9951 -22.2292 40.0609)" style="fill:#fcd34d;" cx="394.455" cy="245.074" rx="4.751" ry="4.751"/>
		
			<ellipse transform="matrix(0.9951 -0.0985 0.0985 0.9951 -23.9625 36.9497)" style="fill:#fcd34d;" cx="362.083" cy="261.062" rx="4.481" ry="4.481"/>
		<circle style="fill:#fcd34d;" cx="332.077" cy="281.143" r="4.12"/>
		<path style="fill:#fcd34d;" d="M304.936,301.277c-2.032,0-3.679,1.647-3.679,3.679c0,2.032,1.647,3.679,3.679,3.679
			c2.032,0,3.679-1.647,3.679-3.679C308.615,302.924,306.968,301.277,304.936,301.277z"/>
		<path style="fill:#fcd34d;" d="M281.115,328.866c-1.78,0-3.223,1.443-3.223,3.223c0,1.78,1.443,3.223,3.223,3.223
			c1.78,0,3.223-1.443,3.223-3.223C284.338,330.309,282.895,328.866,281.115,328.866z"/>
		<circle style="fill:#fcd34d;" cx="261.025" cy="362.09" r="2.767"/>
		<circle style="fill:#fcd34d;" cx="245.027" cy="394.458" r="2.311"/>
		<path style="fill:#fcd34d;" d="M233.418,426.742c-1.052,0-1.904,0.852-1.904,1.904c0,1.052,0.852,1.904,1.904,1.904
			c1.052,0,1.904-0.853,1.904-1.904C235.322,427.595,234.47,426.742,233.418,426.742z"/>
		<path style="fill:#fcd34d;" d="M226.404,462.486c-0.872,0-1.579,0.707-1.579,1.579s0.707,1.579,1.579,1.579
			c0.872,0,1.579-0.707,1.579-1.579S227.276,462.486,226.404,462.486z"/>
		<path style="fill:#fcd34d;" d="M224.066,498.737c-0.75,0-1.358,0.608-1.358,1.358c0,0.75,0.608,1.358,1.358,1.358
			c0.75,0,1.358-0.608,1.358-1.358C225.424,499.345,224.816,498.737,224.066,498.737z"/>
		<path style="fill:#fcd34d;" d="M226.389,534.95c-0.65,0-1.177,0.527-1.177,1.177c0,0.65,0.527,1.177,1.177,1.177
			s1.177-0.527,1.177-1.177C227.567,535.477,227.04,534.95,226.389,534.95z"/>
		<path style="fill:#fcd34d;" d="M233.389,570.396c-0.637,0-1.153,0.516-1.153,1.153c0,0.637,0.516,1.153,1.153,1.153
			s1.153-0.516,1.153-1.153C234.542,570.912,234.026,570.396,233.389,570.396z"/>
		<circle style="fill:#fcd34d;" cx="244.985" cy="605.743" r="1.314"/>
		<circle style="fill:#fcd34d;" cx="260.968" cy="638.116" r="1.654"/>
		<circle style="fill:#fcd34d;" cx="281.047" cy="668.125" r="2.086"/>
		
			<ellipse transform="matrix(0.9732 -0.2298 0.2298 0.9732 -151.584 88.6404)" style="fill:#fcd34d;" cx="304.857" cy="695.268" rx="2.496" ry="2.496"/>
		<circle style="fill:#fcd34d;" cx="331.988" cy="719.092" r="2.807"/>
		
			<ellipse transform="matrix(0.8507 -0.5257 0.5257 0.8507 -334.5499 300.7032)" style="fill:#fcd34d;" cx="361.986" cy="739.185" rx="2.925" ry="2.925"/>
		<circle style="fill:#fcd34d;" cx="394.353" cy="755.187" r="2.867"/>
		<circle style="fill:#fcd34d;" cx="428.54" cy="766.799" r="2.673"/>
		<circle style="fill:#fcd34d;" cx="463.958" cy="773.817" r="2.333"/>
		<path style="fill:#fcd34d;" d="M499.987,774.276c-1.04,0-1.883,0.843-1.883,1.883s0.843,1.883,1.883,1.883
			c1.04,0,1.883-0.843,1.883-1.883S501.027,774.276,499.987,774.276z"/>
		<circle style="fill:#fcd34d;" cx="536.02" cy="773.839" r="1.426"/>
		<circle style="fill:#fcd34d;" cx="571.442" cy="766.842" r="0.989"/>
		<path style="fill:#fcd34d;" d="M605.638,754.59c-0.365,0-0.661,0.296-0.661,0.661s0.296,0.661,0.661,0.661
			c0.365,0,0.661-0.296,0.661-0.661S606.003,754.59,605.638,754.59z"/>
		<path style="fill:#fcd34d;" d="M638.012,738.796c-0.262,0-0.474,0.212-0.474,0.474c0,0.262,0.212,0.474,0.474,0.474
			c0.262,0,0.474-0.212,0.474-0.474C638.487,739.008,638.274,738.796,638.012,738.796z"/>
		<path style="fill:#fcd34d;" d="M668.023,718.765c-0.237,0-0.43,0.193-0.43,0.43c0,0.238,0.193,0.43,0.43,0.43
			c0.238,0,0.43-0.193,0.43-0.43C668.453,718.958,668.261,718.765,668.023,718.765z"/>
		<path style="fill:#fcd34d;" d="M695.169,694.816c-0.316,0-0.572,0.256-0.572,0.572c0,0.316,0.256,0.572,0.572,0.572
			c0.316,0,0.572-0.256,0.572-0.572C695.741,695.072,695.485,694.816,695.169,694.816z"/>
		<path style="fill:#fcd34d;" d="M718.995,667.392c-0.479,0-0.868,0.388-0.868,0.867c0,0.479,0.388,0.868,0.868,0.868
			c0.479,0,0.867-0.388,0.867-0.868C719.863,667.78,719.474,667.392,718.995,667.392z"/>
		<circle style="fill:#fcd34d;" cx="739.092" cy="638.263" r="1.257"/>
		<circle style="fill:#fcd34d;" cx="755.097" cy="605.898" r="1.72"/>
		<path style="fill:#fcd34d;" d="M766.712,569.456c-1.246,0-2.256,1.01-2.256,2.256s1.01,2.256,2.256,2.256
			c1.246,0,2.256-1.01,2.256-2.256S767.958,569.456,766.712,569.456z"/>
		<circle style="fill:#fcd34d;" cx="773.734" cy="536.295" r="2.837"/>
	</g>
	<g>
		<path style="fill:#fcd34d;" d="M735.147,500.152"/>
		<path style="fill:#fcd34d;" d="M732.137,461.103c-0.736,0-1.332,0.596-1.332,1.332c0,0.736,0.596,1.332,1.332,1.332
			c0.736,0,1.332-0.596,1.332-1.332C733.47,461.7,732.873,461.103,732.137,461.103z"/>
		<path style="fill:#fcd34d;" d="M723.11,423.286c-1.329,0-2.407,1.078-2.407,2.407c0,1.329,1.078,2.407,2.407,2.407
			c1.329,0,2.407-1.078,2.407-2.407C725.517,424.364,724.44,423.286,723.11,423.286z"/>
		<circle style="fill:#fcd34d;" cx="708.267" cy="390.892" r="3.304"/>
		<path style="fill:#fcd34d;" d="M688.018,354.846c-2.257,0-4.086,1.829-4.086,4.086c0,2.257,1.829,4.086,4.086,4.086
			c2.257,0,4.086-1.829,4.086-4.086C692.104,356.675,690.274,354.846,688.018,354.846z"/>
		
			<ellipse transform="matrix(0.7071 -0.7071 0.7071 0.7071 -39.6189 565.5909)" style="fill:#fcd34d;" cx="662.919" cy="330.62" rx="4.703" ry="4.703"/>
		<circle style="fill:#fcd34d;" cx="633.626" cy="306.674" r="5.205"/>
		
			<ellipse transform="matrix(0.9732 -0.2298 0.2298 0.9732 -50.0322 145.751)" style="fill:#fcd34d;" cx="600.877" cy="287.727" rx="5.598" ry="5.598"/>
		<circle style="fill:#fcd34d;" cx="565.504" cy="274.304" r="5.89"/>
		
			<ellipse transform="matrix(0.9732 -0.2298 0.2298 0.9732 -47.1551 128.5442)" style="fill:#fcd34d;" cx="528.43" cy="266.77" rx="6.086" ry="6.086"/>
		<circle style="fill:#fcd34d;" cx="490.62" cy="265.264" r="6.192"/>
		<circle style="fill:#fcd34d;" cx="453.054" cy="269.78" r="6.144"/>
		
			<ellipse transform="matrix(0.9871 -0.1602 0.1602 0.9871 -39.5166 70.3681)" style="fill:#fcd34d;" cx="416.705" cy="280.289" rx="5.926" ry="5.926"/>
		
			<ellipse transform="matrix(0.3827 -0.9239 0.9239 0.3827 -37.8106 536.4662)" style="fill:#fcd34d;" cx="382.534" cy="296.527" rx="5.495" ry="5.495"/>
		<circle style="fill:#fcd34d;" cx="351.413" cy="318.043" r="4.941"/>
		<circle style="fill:#fcd34d;" cx="324.127" cy="344.254" r="4.254"/>
		
			<ellipse transform="matrix(0.9871 -0.1602 0.1602 0.9871 -56.0941 53.1103)" style="fill:#fcd34d;" cx="301.373" cy="374.483" rx="3.533" ry="3.533"/>
		<path style="fill:#fcd34d;" d="M283.762,405.111c-1.578,0-2.857,1.279-2.857,2.857c0,1.578,1.279,2.857,2.857,2.857
			c1.578,0,2.857-1.279,2.857-2.857C286.619,406.39,285.339,405.111,283.762,405.111z"/>
		<path style="fill:#fcd34d;" d="M271.782,441.582c-1.256,0-2.274,1.018-2.274,2.274c0,1.256,1.018,2.274,2.274,2.274
			s2.274-1.018,2.274-2.274C274.056,442.6,273.038,441.582,271.782,441.582z"/>
		<path style="fill:#fcd34d;" d="M265.751,479.413c-0.992,0-1.797,0.804-1.797,1.797c0,0.992,0.804,1.797,1.797,1.797
			s1.797-0.804,1.797-1.797C267.547,480.217,266.743,479.413,265.751,479.413z"/>
		<path style="fill:#fcd34d;" d="M265.747,517.54c-0.832,0-1.506,0.674-1.506,1.506c0,0.832,0.674,1.506,1.506,1.506
			c0.832,0,1.506-0.674,1.506-1.506C267.253,518.214,266.579,517.54,265.747,517.54z"/>
		<circle style="fill:#fcd34d;" cx="271.77" cy="556.399" r="1.396"/>
		<path style="fill:#fcd34d;" d="M283.743,590.662c-0.9,0-1.629,0.729-1.629,1.629c0,0.9,0.729,1.629,1.629,1.629
			s1.629-0.729,1.629-1.629C285.372,591.391,284.643,590.662,283.743,590.662z"/>
		<circle style="fill:#fcd34d;" cx="301.346" cy="625.777" r="2.194"/>
		<circle style="fill:#fcd34d;" cx="324.093" cy="656.011" r="2.866"/>
		<circle style="fill:#fcd34d;" cx="351.373" cy="682.227" r="3.378"/>
		<circle style="fill:#fcd34d;" cx="382.489" cy="703.75" r="3.611"/>
		
			<ellipse transform="matrix(0.3827 -0.9239 0.9239 0.3827 -407.9801 829.4075)" style="fill:#fcd34d;" cx="416.658" cy="719.997" rx="3.479" ry="3.479"/>
		
			<ellipse transform="matrix(0.8507 -0.5257 0.5257 0.8507 -316.3979 347.2596)" style="fill:#fcd34d;" cx="453.002" cy="730.512" rx="3.112" ry="3.112"/>
		<circle style="fill:#fcd34d;" cx="490.567" cy="735.037" r="2.517"/>
		<circle style="fill:#fcd34d;" cx="528.376" cy="733.539" r="1.793"/>
		<path style="fill:#fcd34d;" d="M565.455,724.872c-0.63,0-1.141,0.511-1.141,1.141s0.511,1.141,1.141,1.141
			s1.141-0.511,1.141-1.141S566.085,724.872,565.455,724.872z"/>
		<path style="fill:#fcd34d;" d="M600.832,711.898c-0.386,0-0.7,0.313-0.7,0.7s0.313,0.7,0.7,0.7s0.7-0.313,0.7-0.7
			S601.218,711.898,600.832,711.898z"/>
		<path style="fill:#fcd34d;" d="M633.585,693.137c-0.288,0-0.521,0.233-0.521,0.521c0,0.288,0.233,0.521,0.521,0.521
			c0.288,0,0.521-0.233,0.521-0.521C634.106,693.37,633.872,693.137,633.585,693.137z"/>
		<path style="fill:#fcd34d;" d="M662.883,669.055c-0.366,0-0.663,0.297-0.663,0.663c0,0.366,0.297,0.663,0.663,0.663
			c0.366,0,0.663-0.297,0.663-0.663C663.546,669.352,663.25,669.055,662.883,669.055z"/>
		<path style="fill:#fcd34d;" d="M687.988,640.318c-0.603,0-1.093,0.489-1.093,1.093s0.489,1.093,1.093,1.093
			c0.603,0,1.093-0.489,1.093-1.093S688.591,640.318,687.988,640.318z"/>
		<path style="fill:#fcd34d;" d="M708.243,607.757c-0.938,0-1.698,0.76-1.698,1.698s0.76,1.698,1.698,1.698
			c0.938,0,1.698-0.76,1.698-1.698S709.181,607.757,708.243,607.757z"/>
		<path style="fill:#fcd34d;" d="M723.095,572.219c-1.347,0-2.438,1.092-2.438,2.438s1.092,2.438,2.438,2.438
			c1.347,0,2.438-1.092,2.438-2.438S724.441,572.219,723.095,572.219z"/>
		<path style="fill:#fcd34d;" d="M732.129,534.602c-1.831,0-3.315,1.484-3.315,3.315c0,1.831,1.484,3.315,3.315,3.315
			c1.831,0,3.315-1.484,3.315-3.315C735.445,536.086,733.96,534.602,732.129,534.602z"/>
		
			<ellipse transform="matrix(0.3827 -0.9239 0.9239 0.3827 -9.1422 988.526)" style="fill:#fcd34d;" cx="735.145" cy="501.104" rx="4.257" ry="4.257"/>
	</g>
	<g>
		<path style="fill:#fcd34d;" d="M694.214,500.152"/>
		<circle style="fill:#fcd34d;" cx="690.01" cy="459.776" r="1.999"/>
		<path style="fill:#fcd34d;" d="M677.474,417.623c-1.957,0-3.543,1.586-3.543,3.543c0,1.957,1.586,3.543,3.543,3.543
			s3.543-1.586,3.543-3.543C681.017,419.209,679.43,417.623,677.474,417.623z"/>
		<circle style="fill:#fcd34d;" cx="657.147" cy="386.029" r="4.761"/>
		<circle style="fill:#fcd34d;" cx="629.975" cy="355.871" r="5.699"/>
		
			<ellipse transform="matrix(0.7071 -0.7071 0.7071 0.7071 -59.8488 519.4874)" style="fill:#fcd34d;" cx="597.152" cy="331.988" rx="6.426" ry="6.426"/>
		<circle style="fill:#fcd34d;" cx="560.078" cy="315.461" r="6.923"/>
		<circle style="fill:#fcd34d;" cx="520.372" cy="307.058" r="7.224"/>
		
			<ellipse transform="matrix(0.9239 -0.3827 0.3827 0.9239 -80.9851 206.9756)" style="fill:#fcd34d;" cx="479.777" cy="307.058" rx="7.336" ry="7.336"/>
		
			<ellipse transform="matrix(0.9951 -0.0985 0.0985 0.9951 -28.9431 44.8978)" style="fill:#fcd34d;" cx="440.064" cy="315.462" rx="7.114" ry="7.114"/>
		
			<ellipse transform="matrix(0.3827 -0.9239 0.9239 0.3827 -57.9457 577.2567)" style="fill:#fcd34d;" cx="402.99" cy="331.989" rx="6.51" ry="6.51"/>
		
			<ellipse transform="matrix(0.9239 -0.3827 0.3827 0.9239 -108.0097 168.7465)" style="fill:#fcd34d;" cx="370.167" cy="355.873" rx="5.609" ry="5.609"/>
		<circle style="fill:#fcd34d;" cx="342.996" cy="386.032" r="4.529"/>
		<path style="fill:#fcd34d;" d="M322.671,417.707c-1.912,0-3.462,1.55-3.462,3.462c0,1.912,1.55,3.462,3.462,3.462
			c1.912,0,3.462-1.55,3.462-3.462C326.132,419.257,324.583,417.707,322.671,417.707z"/>
		<path style="fill:#fcd34d;" d="M310.135,457.236c-1.403,0-2.54,1.137-2.54,2.54c0,1.403,1.137,2.54,2.54,2.54
			c1.403,0,2.54-1.137,2.54-2.54C312.675,458.373,311.538,457.236,310.135,457.236z"/>
		<circle style="fill:#fcd34d;" cx="305.931" cy="500.152" r="1.931"/>
		<path style="fill:#fcd34d;" d="M310.135,538.884c-0.907,0-1.643,0.736-1.643,1.643s0.736,1.643,1.643,1.643
			s1.643-0.736,1.643-1.643S311.043,538.884,310.135,538.884z"/>
		<path style="fill:#fcd34d;" d="M322.672,577.145c-1.1,0-1.992,0.892-1.992,1.992c0,1.1,0.892,1.992,1.992,1.992
			c1.1,0,1.992-0.892,1.992-1.992C324.664,578.037,323.772,577.145,322.672,577.145z"/>
		<circle style="fill:#fcd34d;" cx="342.998" cy="614.274" r="2.914"/>
		<circle style="fill:#fcd34d;" cx="370.17" cy="644.432" r="3.868"/>
		
			<ellipse transform="matrix(0.9732 -0.2298 0.2298 0.9732 -142.7674 110.4673)" style="fill:#fcd34d;" cx="402.993" cy="668.316" rx="4.277" ry="4.277"/>
		<circle style="fill:#fcd34d;" cx="440.068" cy="684.843" r="4.052"/>
		
			<ellipse transform="matrix(0.9732 -0.2298 0.2298 0.9732 -146.4411 128.775)" style="fill:#fcd34d;" cx="479.774" cy="693.245" rx="3.281" ry="3.281"/>
		<path style="fill:#fcd34d;" d="M520.369,691.037c-1.22,0-2.208,0.989-2.208,2.208c0,1.22,0.989,2.208,2.208,2.208
			c1.22,0,2.208-0.989,2.208-2.208C522.577,692.025,521.588,691.037,520.369,691.037z"/>
		<path style="fill:#fcd34d;" d="M560.082,683.625c-0.672,0-1.216,0.544-1.216,1.216s0.544,1.216,1.216,1.216
			s1.216-0.544,1.216-1.216S560.753,683.625,560.082,683.625z"/>
		<path style="fill:#fcd34d;" d="M597.155,667.644c-0.37,0-0.67,0.3-0.67,0.67c0,0.37,0.3,0.67,0.67,0.67c0.37,0,0.67-0.3,0.67-0.67
			C597.825,667.944,597.525,667.644,597.155,667.644z"/>
		<path style="fill:#fcd34d;" d="M629.978,643.713c-0.396,0-0.717,0.321-0.717,0.717s0.321,0.717,0.717,0.717
			c0.396,0,0.717-0.321,0.717-0.717S630.374,643.713,629.978,643.713z"/>
		<circle style="fill:#fcd34d;" cx="657.149" cy="614.271" r="1.349"/>
		<circle style="fill:#fcd34d;" cx="677.475" cy="579.134" r="2.354"/>
		<path style="fill:#fcd34d;" d="M690.01,536.911c-1.997,0-3.615,1.619-3.615,3.616s1.619,3.616,3.615,3.616
			c1.997,0,3.616-1.619,3.616-3.616S692.007,536.911,690.01,536.911z"/>
		
			<ellipse transform="matrix(0.5257 -0.8507 0.8507 0.5257 -97.0213 828.1905)" style="fill:#fcd34d;" cx="694.212" cy="501.104" rx="5.043" ry="5.043"/>
	</g>
	<g>
		<path style="fill:#fcd34d;" d="M653.282,500.152"/>
		<path style="fill:#fcd34d;" d="M647.637,455.899c-1.602,0-2.901,1.299-2.901,2.902s1.299,2.902,2.901,2.902
			s2.902-1.299,2.902-2.902S649.239,455.899,647.637,455.899z"/>
		<circle style="fill:#fcd34d;" cx="630.995" cy="420.532" r="4.984"/>
		
			<ellipse transform="matrix(0.9732 -0.2298 0.2298 0.9732 -73.0093 149.302)" style="fill:#fcd34d;" cx="604.638" cy="388.173" rx="6.504" ry="6.504"/>
		<circle style="fill:#fcd34d;" cx="570.559" cy="364.083" r="7.566"/>
		
			<ellipse transform="matrix(0.9871 -0.1602 0.1602 0.9871 -49.2223 89.6152)" style="fill:#fcd34d;" cx="531.235" cy="350.114" rx="8.215" ry="8.215"/>
		
			<ellipse transform="matrix(0.3827 -0.9239 0.9239 0.3827 -18.6244 666.7167)" style="fill:#fcd34d;" cx="489.594" cy="347.295" rx="8.479" ry="8.479"/>
		<circle style="fill:#fcd34d;" cx="448.728" cy="355.758" r="8.162"/>
		<circle style="fill:#fcd34d;" cx="411.691" cy="374.99" r="7.127"/>
		
			<ellipse transform="matrix(0.9951 -0.0985 0.0985 0.9951 -37.9032 39.5259)" style="fill:#fcd34d;" cx="381.2" cy="403.488" rx="5.572" ry="5.572"/>
		<circle style="fill:#fcd34d;" cx="359.496" cy="439.133" r="3.951"/>
		<circle style="fill:#fcd34d;" cx="348.268" cy="479.32" r="2.658"/>
		<path style="fill:#fcd34d;" d="M348.278,519.097c-1.082,0-1.96,0.877-1.96,1.96s0.877,1.96,1.96,1.96s1.96-0.877,1.96-1.96
			S349.36,519.097,348.278,519.097z"/>
		
			<ellipse transform="matrix(0.9732 -0.2298 0.2298 0.9732 -119.3291 97.6159)" style="fill:#fcd34d;" cx="359.528" cy="561.244" rx="2.262" ry="2.262"/>
		<circle style="fill:#fcd34d;" cx="381.251" cy="596.878" r="3.682"/>
		<circle style="fill:#fcd34d;" cx="411.756" cy="625.36" r="4.837"/>
		<circle style="fill:#fcd34d;" cx="448.803" cy="644.572" r="4.745"/>
		<circle style="fill:#fcd34d;" cx="489.665" cy="653.013" r="3.596"/>
		<circle style="fill:#fcd34d;" cx="531.302" cy="650.176" r="1.95"/>
		<path style="fill:#fcd34d;" d="M570.622,635.34c-0.468,0-0.847,0.379-0.847,0.847c0,0.468,0.379,0.847,0.847,0.847
			s0.847-0.379,0.847-0.847C571.469,635.719,571.09,635.34,570.622,635.34z"/>
		<path style="fill:#fcd34d;" d="M604.69,611.208c-0.482,0-0.873,0.391-0.873,0.873c0,0.482,0.391,0.873,0.873,0.873
			s0.873-0.391,0.873-0.873C605.564,611.6,605.173,611.208,604.69,611.208z"/>
		<path style="fill:#fcd34d;" d="M631.031,577.722c-1.099,0-1.989,0.891-1.989,1.989c0,1.099,0.891,1.989,1.989,1.989
			c1.099,0,1.989-0.891,1.989-1.989C633.021,578.612,632.13,577.722,631.031,577.722z"/>
		<path style="fill:#fcd34d;" d="M647.656,537.729c-2.046,0-3.704,1.658-3.704,3.704s1.658,3.704,3.704,3.704
			c2.046,0,3.704-1.658,3.704-3.704S649.702,537.729,647.656,537.729z"/>
	</g>
	<g>
		<path style="fill:#fcd34d;" d="M612.349,500.152"/>
		<circle style="fill:#fcd34d;" cx="603.83" cy="457.174" r="4.42"/>
		<circle style="fill:#fcd34d;" cx="579.464" cy="420.76" r="7.202"/>
		<circle style="fill:#fcd34d;" cx="543.05" cy="396.394" r="8.861"/>
		<circle style="fill:#fcd34d;" cx="500.073" cy="387.875" r="9.6"/>
		
			<ellipse transform="matrix(0.9951 -0.0985 0.0985 0.9951 -36.835 46.97)" style="fill:#fcd34d;" cx="457.096" cy="396.394" rx="9.103" ry="9.103"/>
		
			<ellipse transform="matrix(0.9871 -0.1602 0.1602 0.9871 -61.9663 72.8188)" style="fill:#fcd34d;" cx="420.681" cy="420.76" rx="7.01" ry="7.01"/>
		<circle style="fill:#fcd34d;" cx="396.315" cy="457.175" r="4.376"/>
		<circle style="fill:#fcd34d;" cx="387.796" cy="500.152" r="2.533"/>
		<circle style="fill:#fcd34d;" cx="396.315" cy="543.129" r="2.497"/>
		<circle style="fill:#fcd34d;" cx="420.681" cy="579.543" r="4.811"/>
		
			<ellipse transform="matrix(0.9871 -0.1602 0.1602 0.9871 -90.8332 81.0165)" style="fill:#fcd34d;" cx="457.096" cy="603.909" rx="5.511" ry="5.511"/>
		<circle style="fill:#fcd34d;" cx="500.073" cy="612.428" r="3.629"/>
		<circle style="fill:#fcd34d;" cx="543.05" cy="603.909" r="1.23"/>
		<path style="fill:#fcd34d;" d="M579.464,578.457c-0.6,0-1.086,0.486-1.086,1.086c0,0.6,0.486,1.086,1.086,1.086
			s1.086-0.486,1.086-1.086C580.55,578.943,580.064,578.457,579.464,578.457z"/>
		<circle style="fill:#fcd34d;" cx="603.83" cy="543.128" r="3.277"/>
	</g>
	<g>
		<path style="fill:#fcd34d;" d="M571.417,500.152"/>
		
			<ellipse transform="matrix(0.3827 -0.9239 0.9239 0.3827 -78.9957 798.1921)" style="fill:#fcd34d;" cx="557.792" cy="458.209" rx="6.987" ry="6.987"/>
		<circle style="fill:#fcd34d;" cx="522.119" cy="432.279" r="10.17"/>
		
			<ellipse transform="matrix(0.9239 -0.3827 0.3827 0.9239 -129.0423 215.8315)" style="fill:#fcd34d;" cx="478.007" cy="432.285" rx="10.44" ry="10.44"/>
		
			<ellipse transform="matrix(0.9239 -0.3827 0.3827 0.9239 -141.6867 204.1564)" style="fill:#fcd34d;" cx="442.337" cy="458.231" rx="6.647" ry="6.647"/>
		
			<ellipse transform="matrix(0.9732 -0.2298 0.2298 0.9732 -103.4494 111.8825)" style="fill:#fcd34d;" cx="428.728" cy="500.18" rx="2.834" ry="2.834"/>
		<circle style="fill:#fcd34d;" cx="442.37" cy="542.118" r="4.276"/>
		<circle style="fill:#fcd34d;" cx="478.054" cy="568.033" r="5.946"/>
		<path style="fill:#fcd34d;" d="M522.166,566.24c-0.977,0-1.769,0.792-1.769,1.769c0,0.977,0.792,1.769,1.769,1.769
			c0.977,0,1.769-0.792,1.769-1.769C523.934,567.032,523.143,566.24,522.166,566.24z"/>
		<circle style="fill:#fcd34d;" cx="557.825" cy="542.049" r="1.977"/>
	</g>
	<g>
		<path style="fill:#fcd34d;" d="M530.484,500.152"/>
		
			<ellipse transform="matrix(0.9871 -0.1602 0.1602 0.9871 -68.7867 86.1682)" style="fill:#fcd34d;" cx="500.073" cy="469.74" rx="11.887" ry="11.887"/>
		<circle style="fill:#fcd34d;" cx="469.661" cy="500.152" r="3.128"/>
		<circle style="fill:#fcd34d;" cx="500.073" cy="530.563" r="4.492"/>
	</g>
</g>
</svg>
